<mxfile host="app.diagrams.net" agent="Mozilla/5.0 (Windows NT 10.0; Win64; x64) AppleWebKit/537.36 (KHTML, like Gecko) Chrome/136.0.0.0 Safari/537.36 Edg/136.0.0.0" version="27.0.6">
  <diagram id="prtHgNgQTEPvFCAcTncT" name="Page-1">
    <mxGraphModel dx="1205" dy="773" grid="1" gridSize="10" guides="1" tooltips="1" connect="1" arrows="1" fold="1" page="1" pageScale="1" pageWidth="827" pageHeight="1169" math="0" shadow="0">
      <root>
        <mxCell id="0" />
        <mxCell id="1" parent="0" />
        <mxCell id="dNxyNK7c78bLwvsdeMH5-19" value="Pool" style="swimlane;html=1;childLayout=stackLayout;resizeParent=1;resizeParentMax=0;horizontal=0;startSize=20;horizontalStack=0;" parent="1" vertex="1">
          <mxGeometry x="120" y="120" width="450" height="360" as="geometry" />
        </mxCell>
        <mxCell id="dNxyNK7c78bLwvsdeMH5-27" value="" style="edgeStyle=orthogonalEdgeStyle;rounded=0;orthogonalLoop=1;jettySize=auto;html=1;dashed=1;endArrow=none;endFill=0;" parent="dNxyNK7c78bLwvsdeMH5-19" source="dNxyNK7c78bLwvsdeMH5-24" target="dNxyNK7c78bLwvsdeMH5-26" edge="1">
          <mxGeometry relative="1" as="geometry" />
        </mxCell>
        <mxCell id="dNxyNK7c78bLwvsdeMH5-31" style="edgeStyle=orthogonalEdgeStyle;rounded=0;orthogonalLoop=1;jettySize=auto;html=1;endArrow=classic;endFill=1;" parent="dNxyNK7c78bLwvsdeMH5-19" source="dNxyNK7c78bLwvsdeMH5-28" target="dNxyNK7c78bLwvsdeMH5-30" edge="1">
          <mxGeometry relative="1" as="geometry" />
        </mxCell>
        <mxCell id="dNxyNK7c78bLwvsdeMH5-35" style="edgeStyle=orthogonalEdgeStyle;rounded=0;orthogonalLoop=1;jettySize=auto;html=1;endArrow=classic;endFill=1;" parent="dNxyNK7c78bLwvsdeMH5-19" source="dNxyNK7c78bLwvsdeMH5-28" target="dNxyNK7c78bLwvsdeMH5-34" edge="1">
          <mxGeometry relative="1" as="geometry" />
        </mxCell>
        <mxCell id="dNxyNK7c78bLwvsdeMH5-38" style="edgeStyle=orthogonalEdgeStyle;rounded=0;orthogonalLoop=1;jettySize=auto;html=1;endArrow=classic;endFill=1;" parent="dNxyNK7c78bLwvsdeMH5-19" source="dNxyNK7c78bLwvsdeMH5-26" target="dNxyNK7c78bLwvsdeMH5-36" edge="1">
          <mxGeometry relative="1" as="geometry">
            <Array as="points">
              <mxPoint x="180" y="340" />
              <mxPoint x="400" y="340" />
            </Array>
          </mxGeometry>
        </mxCell>
        <mxCell id="dNxyNK7c78bLwvsdeMH5-20" value="Lane 1" style="swimlane;html=1;startSize=20;horizontal=0;" parent="dNxyNK7c78bLwvsdeMH5-19" vertex="1">
          <mxGeometry x="20" width="430" height="120" as="geometry" />
        </mxCell>
        <mxCell id="dNxyNK7c78bLwvsdeMH5-25" value="" style="edgeStyle=orthogonalEdgeStyle;rounded=0;orthogonalLoop=1;jettySize=auto;html=1;" parent="dNxyNK7c78bLwvsdeMH5-20" source="dNxyNK7c78bLwvsdeMH5-23" target="dNxyNK7c78bLwvsdeMH5-24" edge="1">
          <mxGeometry relative="1" as="geometry" />
        </mxCell>
        <mxCell id="dNxyNK7c78bLwvsdeMH5-23" value="" style="ellipse;whiteSpace=wrap;html=1;" parent="dNxyNK7c78bLwvsdeMH5-20" vertex="1">
          <mxGeometry x="40" y="40" width="40" height="40" as="geometry" />
        </mxCell>
        <mxCell id="dNxyNK7c78bLwvsdeMH5-24" value="" style="rounded=0;whiteSpace=wrap;html=1;fontFamily=Helvetica;fontSize=12;fontColor=#000000;align=center;" parent="dNxyNK7c78bLwvsdeMH5-20" vertex="1">
          <mxGeometry x="120" y="30" width="80" height="60" as="geometry" />
        </mxCell>
        <mxCell id="dNxyNK7c78bLwvsdeMH5-33" value="" style="edgeStyle=orthogonalEdgeStyle;rounded=0;orthogonalLoop=1;jettySize=auto;html=1;endArrow=classic;endFill=1;" parent="dNxyNK7c78bLwvsdeMH5-20" source="dNxyNK7c78bLwvsdeMH5-30" target="dNxyNK7c78bLwvsdeMH5-32" edge="1">
          <mxGeometry relative="1" as="geometry" />
        </mxCell>
        <mxCell id="dNxyNK7c78bLwvsdeMH5-30" value="" style="rounded=0;whiteSpace=wrap;html=1;fontFamily=Helvetica;fontSize=12;fontColor=#000000;align=center;" parent="dNxyNK7c78bLwvsdeMH5-20" vertex="1">
          <mxGeometry x="240" y="30" width="80" height="60" as="geometry" />
        </mxCell>
        <mxCell id="dNxyNK7c78bLwvsdeMH5-32" value="" style="ellipse;whiteSpace=wrap;html=1;" parent="dNxyNK7c78bLwvsdeMH5-20" vertex="1">
          <mxGeometry x="360" y="40" width="40" height="40" as="geometry" />
        </mxCell>
        <mxCell id="dNxyNK7c78bLwvsdeMH5-21" value="Lane 2" style="swimlane;html=1;startSize=20;horizontal=0;" parent="dNxyNK7c78bLwvsdeMH5-19" vertex="1">
          <mxGeometry x="20" y="120" width="430" height="120" as="geometry" />
        </mxCell>
        <mxCell id="dNxyNK7c78bLwvsdeMH5-29" value="" style="edgeStyle=orthogonalEdgeStyle;rounded=0;orthogonalLoop=1;jettySize=auto;html=1;endArrow=classic;endFill=1;" parent="dNxyNK7c78bLwvsdeMH5-21" source="dNxyNK7c78bLwvsdeMH5-26" target="dNxyNK7c78bLwvsdeMH5-28" edge="1">
          <mxGeometry relative="1" as="geometry" />
        </mxCell>
        <mxCell id="dNxyNK7c78bLwvsdeMH5-26" value="" style="rounded=0;whiteSpace=wrap;html=1;fontFamily=Helvetica;fontSize=12;fontColor=#000000;align=center;" parent="dNxyNK7c78bLwvsdeMH5-21" vertex="1">
          <mxGeometry x="120" y="30" width="80" height="60" as="geometry" />
        </mxCell>
        <mxCell id="dNxyNK7c78bLwvsdeMH5-28" value="" style="rhombus;whiteSpace=wrap;html=1;fontFamily=Helvetica;fontSize=12;fontColor=#000000;align=center;" parent="dNxyNK7c78bLwvsdeMH5-21" vertex="1">
          <mxGeometry x="260" y="40" width="40" height="40" as="geometry" />
        </mxCell>
        <mxCell id="dNxyNK7c78bLwvsdeMH5-22" value="Lane 3" style="swimlane;html=1;startSize=20;horizontal=0;" parent="dNxyNK7c78bLwvsdeMH5-19" vertex="1">
          <mxGeometry x="20" y="240" width="430" height="120" as="geometry" />
        </mxCell>
        <mxCell id="dNxyNK7c78bLwvsdeMH5-37" value="" style="edgeStyle=orthogonalEdgeStyle;rounded=0;orthogonalLoop=1;jettySize=auto;html=1;endArrow=classic;endFill=1;" parent="dNxyNK7c78bLwvsdeMH5-22" source="dNxyNK7c78bLwvsdeMH5-34" target="dNxyNK7c78bLwvsdeMH5-36" edge="1">
          <mxGeometry relative="1" as="geometry" />
        </mxCell>
        <mxCell id="dNxyNK7c78bLwvsdeMH5-34" value="" style="rounded=0;whiteSpace=wrap;html=1;fontFamily=Helvetica;fontSize=12;fontColor=#000000;align=center;" parent="dNxyNK7c78bLwvsdeMH5-22" vertex="1">
          <mxGeometry x="240" y="20" width="80" height="60" as="geometry" />
        </mxCell>
        <mxCell id="dNxyNK7c78bLwvsdeMH5-36" value="" style="rhombus;whiteSpace=wrap;html=1;fontFamily=Helvetica;fontSize=12;fontColor=#000000;align=center;" parent="dNxyNK7c78bLwvsdeMH5-22" vertex="1">
          <mxGeometry x="360" y="30" width="40" height="40" as="geometry" />
        </mxCell>
        <mxCell id="3IhThd-z2CUpJYqbDKIx-1" value="" style="swimlane;fontStyle=2;childLayout=stackLayout;horizontal=1;startSize=28;horizontalStack=1;resizeParent=1;resizeParentMax=0;resizeLast=0;collapsible=0;marginBottom=0;swimlaneFillColor=none;fontFamily=Permanent Marker;fontSize=16;points=[];verticalAlign=top;stackBorder=0;resizable=1;strokeWidth=2;sketch=1;disableMultiStroke=1;movable=1;rotatable=1;deletable=1;editable=1;locked=0;connectable=1;" vertex="1" parent="1">
          <mxGeometry x="160" y="520" width="900" height="440" as="geometry" />
        </mxCell>
        <object label="TO DO" status="New" id="3IhThd-z2CUpJYqbDKIx-2">
          <mxCell style="swimlane;strokeWidth=2;fontFamily=Permanent Marker;html=0;startSize=1;verticalAlign=bottom;spacingBottom=5;points=[];childLayout=stackLayout;stackBorder=20;stackSpacing=20;resizeLast=0;resizeParent=1;horizontalStack=0;collapsible=0;sketch=1;strokeColor=none;fillStyle=solid;fillColor=#A0522D;" vertex="1" parent="3IhThd-z2CUpJYqbDKIx-1">
            <mxGeometry y="28" width="180" height="412" as="geometry" />
          </mxCell>
        </object>
        <object label="Task 1&lt;br&gt;&lt;span style=&quot;font-weight: normal&quot;&gt;&lt;i&gt;&lt;font style=&quot;font-size: 10px&quot;&gt;%status%&lt;/font&gt;&lt;/i&gt;&lt;/span&gt;" placeholders="1" id="3IhThd-z2CUpJYqbDKIx-3">
          <mxCell style="whiteSpace=wrap;html=1;strokeWidth=2;fillColor=swimlane;fontStyle=1;spacingTop=0;rounded=1;arcSize=9;points=[];sketch=1;fontFamily=Permanent Marker;hachureGap=8;fillWeight=1;" vertex="1" parent="3IhThd-z2CUpJYqbDKIx-2">
            <mxGeometry x="20" y="21" width="140" height="80" as="geometry" />
          </mxCell>
        </object>
        <object label="Task 2&lt;br&gt;&lt;span style=&quot;font-weight: normal&quot;&gt;&lt;i&gt;&lt;font style=&quot;font-size: 10px&quot;&gt;%status%&lt;/font&gt;&lt;/i&gt;&lt;/span&gt;" placeholders="1" id="3IhThd-z2CUpJYqbDKIx-4">
          <mxCell style="whiteSpace=wrap;html=1;strokeWidth=2;fillColor=swimlane;fontStyle=1;spacingTop=0;rounded=1;arcSize=9;points=[];sketch=1;fontFamily=Permanent Marker;hachureGap=8;fillWeight=1;" vertex="1" parent="3IhThd-z2CUpJYqbDKIx-2">
            <mxGeometry x="20" y="121" width="140" height="80" as="geometry" />
          </mxCell>
        </object>
        <object label="Task 3&lt;br&gt;&lt;span style=&quot;font-weight: normal&quot;&gt;&lt;i&gt;&lt;font style=&quot;font-size: 10px&quot;&gt;%status%&lt;/font&gt;&lt;/i&gt;&lt;/span&gt;" placeholders="1" id="3IhThd-z2CUpJYqbDKIx-5">
          <mxCell style="whiteSpace=wrap;html=1;strokeWidth=2;fillColor=swimlane;fontStyle=1;spacingTop=0;rounded=1;arcSize=9;points=[];sketch=1;fontFamily=Permanent Marker;hachureGap=8;fillWeight=1;" vertex="1" parent="3IhThd-z2CUpJYqbDKIx-2">
            <mxGeometry x="20" y="221" width="140" height="80" as="geometry" />
          </mxCell>
        </object>
        <object label="DOING" status="In progress" id="3IhThd-z2CUpJYqbDKIx-6">
          <mxCell style="swimlane;strokeWidth=2;fontFamily=Permanent Marker;html=0;startSize=1;verticalAlign=bottom;spacingBottom=5;points=[];childLayout=stackLayout;stackBorder=20;stackSpacing=20;resizeLast=0;resizeParent=1;horizontalStack=0;collapsible=0;sketch=1;strokeColor=none;fillStyle=solid;fillColor=#006600;" vertex="1" parent="3IhThd-z2CUpJYqbDKIx-1">
            <mxGeometry x="180" y="28" width="180" height="412" as="geometry" />
          </mxCell>
        </object>
        <object label="DONE" status="Completed" id="3IhThd-z2CUpJYqbDKIx-9">
          <mxCell style="swimlane;strokeWidth=2;fontFamily=Permanent Marker;html=0;startSize=1;verticalAlign=bottom;spacingBottom=5;points=[];childLayout=stackLayout;stackBorder=20;stackSpacing=20;resizeLast=0;resizeParent=1;horizontalStack=0;collapsible=0;sketch=1;strokeColor=none;fillStyle=solid;fillColor=#1BA1E2;" vertex="1" parent="3IhThd-z2CUpJYqbDKIx-1">
            <mxGeometry x="360" y="28" width="180" height="412" as="geometry" />
          </mxCell>
        </object>
        <object label="Task 6&lt;br&gt;&lt;span style=&quot;font-weight: normal&quot;&gt;&lt;i&gt;&lt;font style=&quot;font-size: 10px&quot;&gt;%status%&lt;/font&gt;&lt;/i&gt;&lt;/span&gt;" placeholders="1" id="3IhThd-z2CUpJYqbDKIx-10">
          <mxCell style="whiteSpace=wrap;html=1;strokeWidth=2;fillColor=swimlane;fontStyle=1;spacingTop=0;rounded=1;arcSize=9;points=[];sketch=1;fontFamily=Permanent Marker;hachureGap=8;fillWeight=1;" vertex="1" parent="3IhThd-z2CUpJYqbDKIx-9">
            <mxGeometry x="20" y="21" width="140" height="80" as="geometry" />
          </mxCell>
        </object>
        <object label="Task 7&lt;br&gt;&lt;span style=&quot;font-weight: normal&quot;&gt;&lt;i&gt;&lt;font style=&quot;font-size: 10px&quot;&gt;%status%&lt;/font&gt;&lt;/i&gt;&lt;/span&gt;" placeholders="1" id="3IhThd-z2CUpJYqbDKIx-11">
          <mxCell style="whiteSpace=wrap;html=1;strokeWidth=2;fillColor=swimlane;fontStyle=1;spacingTop=0;rounded=1;arcSize=9;points=[];sketch=1;fontFamily=Permanent Marker;hachureGap=8;fillWeight=1;" vertex="1" parent="3IhThd-z2CUpJYqbDKIx-9">
            <mxGeometry x="20" y="121" width="140" height="80" as="geometry" />
          </mxCell>
        </object>
        <object label="Task 8&lt;br&gt;&lt;span style=&quot;font-weight: normal&quot;&gt;&lt;i&gt;&lt;font style=&quot;font-size: 10px&quot;&gt;%status%&lt;/font&gt;&lt;/i&gt;&lt;/span&gt;" placeholders="1" id="3IhThd-z2CUpJYqbDKIx-12">
          <mxCell style="whiteSpace=wrap;html=1;strokeWidth=2;fillColor=swimlane;fontStyle=1;spacingTop=0;rounded=1;arcSize=9;points=[];sketch=1;fontFamily=Permanent Marker;hachureGap=8;fillWeight=1;" vertex="1" parent="3IhThd-z2CUpJYqbDKIx-9">
            <mxGeometry x="20" y="221" width="140" height="80" as="geometry" />
          </mxCell>
        </object>
        <object label="DONE" status="Completed" id="3IhThd-z2CUpJYqbDKIx-13">
          <mxCell style="swimlane;strokeWidth=2;fontFamily=Permanent Marker;html=0;startSize=1;verticalAlign=bottom;spacingBottom=5;points=[];childLayout=stackLayout;stackBorder=20;stackSpacing=20;resizeLast=0;resizeParent=1;horizontalStack=0;collapsible=0;sketch=1;strokeColor=none;fillStyle=solid;fillColor=#1BA1E2;" vertex="1" parent="3IhThd-z2CUpJYqbDKIx-1">
            <mxGeometry x="540" y="28" width="180" height="412" as="geometry" />
          </mxCell>
        </object>
        <object label="Task 6&lt;br&gt;&lt;span style=&quot;font-weight: normal&quot;&gt;&lt;i&gt;&lt;font style=&quot;font-size: 10px&quot;&gt;%status%&lt;/font&gt;&lt;/i&gt;&lt;/span&gt;" placeholders="1" id="3IhThd-z2CUpJYqbDKIx-14">
          <mxCell style="whiteSpace=wrap;html=1;strokeWidth=2;fillColor=swimlane;fontStyle=1;spacingTop=0;rounded=1;arcSize=9;points=[];sketch=1;fontFamily=Permanent Marker;hachureGap=8;fillWeight=1;" vertex="1" parent="3IhThd-z2CUpJYqbDKIx-13">
            <mxGeometry x="20" y="21" width="140" height="80" as="geometry" />
          </mxCell>
        </object>
        <object label="Task 7&lt;br&gt;&lt;span style=&quot;font-weight: normal&quot;&gt;&lt;i&gt;&lt;font style=&quot;font-size: 10px&quot;&gt;%status%&lt;/font&gt;&lt;/i&gt;&lt;/span&gt;" placeholders="1" id="3IhThd-z2CUpJYqbDKIx-15">
          <mxCell style="whiteSpace=wrap;html=1;strokeWidth=2;fillColor=swimlane;fontStyle=1;spacingTop=0;rounded=1;arcSize=9;points=[];sketch=1;fontFamily=Permanent Marker;hachureGap=8;fillWeight=1;" vertex="1" parent="3IhThd-z2CUpJYqbDKIx-13">
            <mxGeometry x="20" y="121" width="140" height="80" as="geometry" />
          </mxCell>
        </object>
        <object label="Task 8&lt;br&gt;&lt;span style=&quot;font-weight: normal&quot;&gt;&lt;i&gt;&lt;font style=&quot;font-size: 10px&quot;&gt;%status%&lt;/font&gt;&lt;/i&gt;&lt;/span&gt;" placeholders="1" id="3IhThd-z2CUpJYqbDKIx-16">
          <mxCell style="whiteSpace=wrap;html=1;strokeWidth=2;fillColor=swimlane;fontStyle=1;spacingTop=0;rounded=1;arcSize=9;points=[];sketch=1;fontFamily=Permanent Marker;hachureGap=8;fillWeight=1;" vertex="1" parent="3IhThd-z2CUpJYqbDKIx-13">
            <mxGeometry x="20" y="221" width="140" height="80" as="geometry" />
          </mxCell>
        </object>
        <object label="DONE" status="Completed" id="3IhThd-z2CUpJYqbDKIx-17">
          <mxCell style="swimlane;strokeWidth=2;fontFamily=Permanent Marker;html=0;startSize=1;verticalAlign=bottom;spacingBottom=5;points=[];childLayout=stackLayout;stackBorder=20;stackSpacing=20;resizeLast=0;resizeParent=1;horizontalStack=0;collapsible=0;sketch=1;strokeColor=none;fillStyle=solid;fillColor=#1BA1E2;" vertex="1" parent="3IhThd-z2CUpJYqbDKIx-1">
            <mxGeometry x="720" y="28" width="180" height="412" as="geometry" />
          </mxCell>
        </object>
        <object label="Task 6&lt;br&gt;&lt;span style=&quot;font-weight: normal&quot;&gt;&lt;i&gt;&lt;font style=&quot;font-size: 10px&quot;&gt;%status%&lt;/font&gt;&lt;/i&gt;&lt;/span&gt;" placeholders="1" id="3IhThd-z2CUpJYqbDKIx-18">
          <mxCell style="whiteSpace=wrap;html=1;strokeWidth=2;fillColor=swimlane;fontStyle=1;spacingTop=0;rounded=1;arcSize=9;points=[];sketch=1;fontFamily=Permanent Marker;hachureGap=8;fillWeight=1;" vertex="1" parent="3IhThd-z2CUpJYqbDKIx-17">
            <mxGeometry x="20" y="21" width="140" height="80" as="geometry" />
          </mxCell>
        </object>
        <object label="Task 7&lt;br&gt;&lt;span style=&quot;font-weight: normal&quot;&gt;&lt;i&gt;&lt;font style=&quot;font-size: 10px&quot;&gt;%status%&lt;/font&gt;&lt;/i&gt;&lt;/span&gt;" placeholders="1" id="3IhThd-z2CUpJYqbDKIx-19">
          <mxCell style="whiteSpace=wrap;html=1;strokeWidth=2;fillColor=swimlane;fontStyle=1;spacingTop=0;rounded=1;arcSize=9;points=[];sketch=1;fontFamily=Permanent Marker;hachureGap=8;fillWeight=1;" vertex="1" parent="3IhThd-z2CUpJYqbDKIx-17">
            <mxGeometry x="20" y="121" width="140" height="80" as="geometry" />
          </mxCell>
        </object>
        <object label="Task 8&lt;br&gt;&lt;span style=&quot;font-weight: normal&quot;&gt;&lt;i&gt;&lt;font style=&quot;font-size: 10px&quot;&gt;%status%&lt;/font&gt;&lt;/i&gt;&lt;/span&gt;" placeholders="1" id="3IhThd-z2CUpJYqbDKIx-20">
          <mxCell style="whiteSpace=wrap;html=1;strokeWidth=2;fillColor=swimlane;fontStyle=1;spacingTop=0;rounded=1;arcSize=9;points=[];sketch=1;fontFamily=Permanent Marker;hachureGap=8;fillWeight=1;" vertex="1" parent="3IhThd-z2CUpJYqbDKIx-17">
            <mxGeometry x="20" y="221" width="140" height="80" as="geometry" />
          </mxCell>
        </object>
        <UserObject label="https://github.com/microchip-pic-avr-solutions/mchv3-dspic33ck256mp508-an1206/blob/main/images/cleanandbuild.PNG?raw=true" link="https://github.com/microchip-pic-avr-solutions/mchv3-dspic33ck256mp508-an1206/blob/main/images/cleanandbuild.PNG?raw=true" id="3IhThd-z2CUpJYqbDKIx-21">
          <mxCell style="text;whiteSpace=wrap;" vertex="1" parent="1">
            <mxGeometry x="710" y="1130" width="560" height="50" as="geometry" />
          </mxCell>
        </UserObject>
        <mxCell id="3IhThd-z2CUpJYqbDKIx-22" value="" style="shape=image;verticalLabelPosition=bottom;labelBackgroundColor=default;verticalAlign=top;aspect=fixed;imageAspect=0;image=data:image/png,iVBORw0KGgoAAAANSUhEUgAAAZIAAAEQCAYAAACa+vIpAAAAAXNSR0IArs4c6QAAAARnQU1BAACxjwv8YQUAAAAJcEhZcwAADsMAAA7DAcdvqGQAAJckSURBVHhe7J0FeFzHvbdze3vb3q+9hbCbpg0zOQxOHDt2EjtmRrGFli1mZrZkybLFFjMzMzMzM2uVOGmg/X0zR1p5Ja9t2bHTVTL/53kf7aE5Z8+u5t2BM3MPWLBgwYIFix8R9wxPzeN26B2ZgqaJA0orazA3N7cqKvISYSz2KobSTcErdrgjJNgfwSVTSaHnW8nA4DDUje1g7eyBz0+q4IztZcibe0HOzPO6XL58Ge3t7Zifn//JEbx2Ho8ndB8Gg/HLhOZLNH+qr29EQlI6xscnluUZt8rs7Cy6+gaxVdkOZ4Or4VY8DrWEQQ4J3yps1bsMJZJnzszMLOrjatwzMXsFt8Pg+CyXKZdW3IpIEmB44hUMZ9tivtztjhDveBwXTSSEnm8l/YNDOKtnCSMrJ2w+rAgFC29IGbpD0vDCdWEiYTAYosidFgmlZ2AY+zWdIHkhGw4FEzgTP0IYxhH3Ynyu6wMt5yBuv5Vxz/T817gdRibnoGZoi5KK6msu5nqU5ybA4DgRSY495isv3hHiHE/ggvEqRTIwCHlVfWgbW+Gj/bKQNfWAmJ4rTuqevy5MJAwGQxS5WyLZoWIPWe8S2BbM4GzyJIeYTw0+JyUSVQd/br+Vcc/sl9/gdhibmoOqvjVKyquuuZjrUUZEonvsZQzdQZHEOpyAm5G40POtpK9/ADJKalDRNsQHe6QhbXwRx3WccVz7+jCRMBgMUYQvkpra+jsmko7eQbx8RA+qMZ2wLOBBNY0UGNLnSKlkEJv1gnBEz43bb2XcM3/lW9wOEzPzUNG3RPGtiCQnHjpHXrqjIomxP4HzhqsTyQApkahr60FZTQfv7ZKEpJE7JAwv3BAmEgaDIYrwRRKXkHrHRNLeM4An96hBNqIV8tHdkA5th3JcPzSzJrHZOBx71J24/VbGPecuXcbt4HjBF6dU9FFcVnnNxVyPUiIS5d1PwlllMy5ofHpHMBZ/Ay4GYkLPt5LR0VF4+/ri0AlJPP3O53j9s6M3hYmEwWCIInyRdHR0oaurh2sEF8wzbofu/iHsVLbGi5K2ePK4FZ44ZolnTtrgeSkHvC5pAVU7X65RfmXc4+TmgR9DQ1OL0AsSRlNtGc6bnb7jxAQuFLduxtTUFMrLy2HneA6K6vqrgomEwWCIInyRCOYTP5aR0XF4hibilJELxHQcl6Ft743o1Dxuv5VxT3V1NX4MIyMj11zM9aD7Ckvjx9LW1ib0fCuhJh0fH+f2F5aOMERTJP3oqU9FiKExjAOLUNExKrBtAPn+YUiIyEPlMH8dg8FYS3R2diIqKgrDw8Pc/7+wfe6GSGippqenB7W1tdfkhU1NTRgYGOD2Wxn3rEyIsRzRFEk9KmKtcOJ/nsarmzbi7KUk5LTOYo5s4/Hq4bLnJNQlnRDUxkoxDMZapLW1FVpaWrC1tUVZWRkmJiauqZW4GyJZLSuDieQmiK5IHCD9hw+gb6+KvZJ2MLuQi06yDxMJg7H2of/zHR0dMDU1hZKSEkJDQzE5OblsHyaSNYQoi0TmT5thFpkNG10JaOsbwC6z71qRzE2D1x0PT1157N+2D3v2uyK+Ywj5MaYID3ZHaA1Nd5YcV4YgKy9k9JFl3gw5JgFeoWmIzGwVOC+DwfipoNVM9fX1MDExga6uLmJjY5dtZyJZQ4i2SLbALKkdqcm2cNFVguKZy2geExTJGKbHypCopwxtORWoqWhB54QC1GJqEXtJCVZWupAObCOymQSv0R2njynCMnsYvJlxDCarQ8XaBw4xzQLnZTAYPxV8kWhqakJbWxtpaWnLtouUSKanp8G4PmtBJDUj9Si4ZAmTg6cRWF18VSTNnRht9YDCP97GcUlDXPD2wmWdHXhXPxHRgXawtbXENsMUjE6NoSdAEZLy8pBxLsbwRDfyTHdD3dEfHkXDAudlMBg/BVQitHHbxcUF6urq8Pf3R19f37J9+CIRlm/dbVbGj+619XNnLYikdpSsa0pEkrcu1PwC4bBrUSS1TRjON8buR/6Kv//5fjy0bh3W/f0JrJPxRVi8F/zsrCEl64XioV6Eqx6CsbURpE9dQOlgHuz27IOtTxKy+gXPy2AwfgoGBwfh7u6OAwcOICIigusttXIfvkiE5Vt3m5VxT3R0NBjXZ82IZKYL9Zlu0FQ/BtkPBEViQUQiBl2XGJSR99He0Yn2gXGMTzQhy8MG5uIn4VAehzN7rBASEAR7MRWElzti1w5TXIqpQOccEwmD8VNTVFSEgwcPIikpiSuJ0Dxg5T58kQjLt+42K+OekpISMK7PmhHJ/DTGuwrhpLwdL/zlLexeqtq6BIV/vIojZ71Q3iPY62MSbcnu8Dm9EbtOiWOrchTyszMQprELGqaq2Kgai4jiHkwt7c9gMH4qqDzi4+O5kgh9/k3YPnyRCMu37jYrgzW23wTRFEkL6tK9oLteDK7ZXWgaW1w/O4mGhPPYt3EXjmn7ILZrCrNT7WiINIe+jBROHhWDpIwcJF0zkN88hJmuXOR7a+HgBydgENOI7t5WFPvpQnzLKRjGNqNyQPgXmMFg3F3o/zsdiWP5//1y+CIRzCd+KlYGE8lNEE2RMBiMXzpMJGsIJhIGgyGKMJGsIZhIGAyGKMJEsoZgImEwGKIIE8kagomEwWCIIkwkawgmEgaDIYowkawhmEgYDIYosqZEUtfWhfjcsl8sTCQMBkMU4YtEWL51N6Au4OdHK+O6IhmfnEJxbTOqmtvQOzT0i4WJhMFgiCJ8kQjLt+4G1AXUCUOj44v6uBrXFUleZQM6+wfw/Xdf/6JhImEwGKIIXyTC8q27BXWCV0zGoj6uxg1F0tg1grkvf/hFw0TCYDBEEb5I5mne8BPR3Nl76yKp7xzFNO+HXzRMJAwGQxThi0Qwn7jbNHb03LpI6tpHMDn7wy8aUREJna+5t7eXwWD8gunv7+fyA5o/rBmR1LYNY3zme+FMf4vxnlbkZOUhKjZtOekNaOr/Uvhxq2Bs4iuU52cirbgdtf3C97k55PqmJ1BbUIq02BKkF/Siffo7jAnd9/qIikjorGRDQ0MMBuMXzMjIyFLtxGpF0tHRiaKiklVRVl6JyakpoelQbkskNUQkYzTzFcb4PEbj1LH1jb/jnl/9Gr/+7e/xhz/+CX/8/W/x62dO4nxam/DjVkF/7wC0dj+C98Qs4JD3rdB9bs6XGJ3KgNVnb+OVe17H65+5IGrqW/QL3ff6iIpIWNUWg8EQZLUi8fbxx45dh3DgkNgN2bv/GI6dkCYln4WJtIRxWyKpbh3GyOR3whmdx3Dsokge2oA3Tl5AVFEFCi9K44P1z+INBS/hx62C4fFv0NzUjuqWcbQPC9/n5nyJ4YkMWH66IJL1n7ogcuJb9And9/owkTAYDFFktSLx8r4MLW1DUpoZvSEpqRk4fFTizoukopkUp8a/Fc4ID4PRatjyOhHJX7fifaVIFA9OoC3NCIffegIv79RBQZYLxN59C298qgy5s9owVT6NN9+zhF9pNUy1pPD2p0dw9JgYdn78Gj47ZQaLsHrkF1ch3kEMW957GTtOu8Atbw697Y3IcVPDcbLvp3vFcWT/Hrz0uRZMw6pR3DyIxoIk+JtL4c0NO/HpnhM4eFIOu6Tc4OW0B1+89ADuved+3P+39/HJSQUcOekB70BvnDnyHt7+/AQOH5fG8ZPSULQIhEfu+DXvk4mEwWCIIqsVySUPH+jqm+D777+/IYVFJdh/8AR6enqFpkO5LZGUNw2hf+yfwhmaQ3/UokjuewMv7jKCU2AYnOTewYsvv4zjpsGoTTDA1vv/iD898iqeW78Z2zYcxtat5nC33YO/v74BB1wb0d3Zj1T91/D247/D49vUoBY1gc6OXpz+5A94aZ8+jMPrUBIgj3fv/QOe+UQZspYR8LU4jb/84bf4634n6FvYwUX2Dfzqd3/BA9vc4ZbRi7rWTvjYh6GwKxZ6W9/CS/esx/qtzggb/Qad5NovqHyK3z/6Kt6Q84NnUBLiCntQ2fGl0PfJRMJgMESR1YrE1c0DZ85qcu2sMzMzS9BlPnQ5NS0D23ccQHd3j9B0KLclkrKmQfSN/lM4g6SkQETyCRWJYBsJZbs5IvNbUR1vgC1UJL/6DHs1Y5A08g15870IUViHV97+EGbp36Cvb/xqOi8fwSeWJdw+SpsXRKLjmY1IjfW47/9+g1/95n/xu9//ceEci+c5LH4cKh/fg//9yzrscetBaiP/GnnoHUmD6aJIXtt6DiH0/GTbJa3d+H+//TXuuecejscP2sM0qhst/VeWv0cCEwmDwRBFbkUkp5U1MDI6iv7+Aa7nF50TvosIgzI4NITx8XEkJ6fdHZGUNg6iZ/gbDLb1Yrw4E5P58VfJjcLEZTHEn3kLYfKbEK2vhoZYL3QRupNCMJoZjIFAacTLr0e44j6kOTuglxw3lu6PetM3EX12MwpDSTrZoVfTUd6NeCcXbp8s9fWI1pFG3kUHNFpuQLjca4jUkkXupfPopudYPE+LuySy1V4j299E0gWS6SfzrzEaE3k2KNT4CNGyGxCtcRb1eeT8ZNtInCOKjTYhTPY1jnC51xGudgwpbheWv0dCrZcexjJ8caUs5ifnq9LoJb7srsf89ITQLxSDwfjlcSsiUVBURU1tLcQk5LBn71GO3YskJCYTeXQjMir27oikJS8bX/nL4xv3TxmigM9hXCkIYkJhMBi3JJJTcsrILyjEZ5/vxTvvbV5GQGAI6urrub93XCRDkTbCMzPGf5yvA+Xw5WCH0C8Xg8H4ZXArIpE+pYS8ggKYmllDR894GXEJiSirqICPr/+dFclX+YFCMzCGCEFKJ6xkwmD8crkVkdBuvZcDgm6ICZHMHRPJfFe98IyLIXJcSXES+gVjMBg/f1YrEg9PX2zesmNVHDh4Ej29d6D775U402szLK/DGM2ORU9N412lNTUIGedOw0HxCKzPKCEiNBMdlcL3/alI93VCf0U2vuxp+MmhUudoLcPXcWbXfC4UVsXFYPwyWa1IxscnMDg4tCqGhoYxMzMrNB3K6kQyOSY0s2qr7UBdx/wvEvpB0Q9M2Ad5txH8bGj3X1oCWfnZ0N5dwo5lMBg/b1YrkjvJqkQirFprMOEyShumfrGIkki+HBu85vOhJZWOfH+EhAfAM7tNaDp8xvrrEGnsiYyGYfRNXbu9v6UUMW5RyBuYx8Sc4LZxzExWwM/UGLq6uhz6hsYIKOhD+4jgfgLMDGO6KxMBtp6IyapD05iQfVZCjpkhxwTaeSEmc+GYVR23SnhzXUg5F4f8ohb0CNnOYKwl1pRIKpPSkZTX/YtFlERC1638fL6O1kakxREcOrAHuwyC0S9EEHx66mMh/X+bYZbYihohAqhL94HSW7JwrOdhcFpwWx/GhwJx9JlX8M4n27Bt2zbs2L0X5rFtqO0X3E+AqT5MNgbDTFwbriGFKBsSss/8NOZmu1CdnIvWnlHumKmmYFhI6sA1uIA7Rvhxt8fcTAn0XzwDZ/cMlPPGMTbQjNKITNR1jWFkRvgxDIaowhfJ+OT0T0ZNSxc8b0ck4X6hsA7I+cUi6iK5EnwCakpq2PPRfqhKyyG5a/aadPj8OJGEQOegPlJ77+QT9v2YHAuFzrPbcDG+Vsj2O8tykTShPus8pH79PkwialE+LPwYBkNU4YvkXHj+T4Z9SA4cQ3MW9XE1biqSrupyNHaPrjkKmobwoVMtXrKs/lGIukhmL26HgsUl6Bqb4rK5BFyz+69Jhw8TCRMJ4+cDXyTC8r+7RUZFO+yCcxf1cTVuKpJ/jXUv7rq2Ypj3Pf5q1Yl7dFp/FKIukhH7z2DkHo3Q9Bik+ujDzKsIE/w0JnswXucPkxMHcXDbNkjpqC0XyWgdapOccJps20U4paJyCyLhkWvqRr63Ppxs7HAuow+8riJYOPjCLrwMvbxhTI9nw1tKH75c1dYo8v2McWT3QtWYrJERHAL9YPPp63j1Dw/i5S1HoBqcj+nJHPjIGMCXq9rq4uioiIHTDhVYm2pyx+4VV4R6RAe6hmcWrmW0AY1pLhAj2yQtLKBvfA6uig4I7+BhWKDKii+Scxe84RtuCY33XsKj//UXPPvGR9hw1hX5DV2YbQ2BtfQxHCZpbdt2CtLKASgg974mOwqX9KzgFeaKM2TbHoLa+VhEpWQhy02Ouy4Js8sIKhlcOh+DcTfhi+SnjLaBCdETyT//+U+Mjo5xM3jRh2C6urrR2dnFDWNM/wout7df3YfOFPavf/1rMRXh8UsRSZf1bpwPy0dVXx0qEtxhZhWIDq6dZAA9VeEIlP0MR46oQlFZF5qqEnibiESfE0kH6hLOwUV6L3Yd0YW6hi7OnDqGz64rkiBIvbEFJ87SxnZLGBpHoaC3DQVJVrBV0cDpsyHIifKBupE33HKayP3vw8RICLSf/hy6lrFIqS2HlZEKVNU0uMZ6Jz8/hGckIEjjALbc9xR2SOvBPbOUK6HoPrcNuhbRSO5p5KhNt4PEr/+BQ6fJuRWPQXrf53h8mxfimwbIebrQkOIKV+k9ED+lC2MzeUjs2oktr0rAro6HXoE2o6siCUZEjjfOiW3D+l89io8PyuOUcwxKqgsQJieO03IaOKtGzqV0FtqnDaCW3Yv0AAscfOUz7FW3gJmODvROfoSdh05gn6IhTC1Myb7H8fEXZyFjl4WWpfvGYNw9mEgWg0rBwcEZ7u4eMDW1hI2NPZycXKCvbww7O6dly25uF5f2uXDhEr788svFVITHL0UkrQ5SCMxsQO9wL5oLoqCiponY6n7MjZagMNwcX7wqBa+8LrRPzKMh0x2fEJEYEpFUtyYiwEoH4vtMEE1+uY+SX+75gRbYewORyH94ANouPvDxCcFl/wLUDU9gnDeAztRA+CocwQ5JLcQW9WGIO6Z/uUgqcogEJKDmkY38+l6MjU9ianZl1dbC8rUisYfEb56HbXw9KX2UoSzEBJt+sx1WKU2o6UxBqIMeTuzUR9kgD+MdUfDVlMLuG4jkelVbPeX+2PJf6/D+1v3Ye0ISkod3YN++HXhcOxPxXuY4uVEeWlFNGOHNYbY7CBYHdmHvdnVYFYyCN1oBy4PSkDxqj9A7Wv3HYAiHiYTE1PQ0fC8HQvmMOmxtHaBBfhFTYZiZWUFZWQ1GRmbLlgX30dUzQnRsPPegzfXilyKSRpMPce8DD2HdunV4+MH78PvfvwmdoCLU9eciN8QaH292QmbbIEbIsYJtJNW1kfCysYaYXCDqSdrTZPttt5E0xiPZdBte3Hkaue389ctFkto9jeHeThS5ncTBj5/HxpM6OFfQt0qROEPqtx8ipGyA7NNErtMFUr/ZANOoBlTUxsDf0RpHJf3QQ94Hj1eCJDs9KN6GSLoL/PHufx+FTXw+8slnTj/3dvJjp2NwAoXBTlA9aA7fFvr+6XnS4SEmw63zIet4vGZ4ip+CygEzbnnp3jAYd4k1LRKaebe0kIyouvq6dHR04Jtvvlk8Qnj09PbBwtoeFz284enlBy/v1ePh6QMDEwu0trUvpnZt3JZI9Dvw/6z7sPViF/5vcZ2oi6TXXQr+4eEI5wiEpdIxnHWMRFxjJUqjTXD4b2/DILwF1QPzKAk2xFNEJLpUJL1ZCLdQgMRHJ2FbxMPA5DwSHJXw7i2LpAFF3u6w3iuHMxqm8IutQSu3foVI6HHkPYy3FiDO5jjOaGpCObzmx4ukJxcx9soQf+8wEkgGPlB4HrYS2/HWbYikry4CB/77MRyxSUVq89jScVQcxaGrFckZ2CTGwXHbWQRkt6FprAnl0ZfhfTmb3NNKJDucw0WzQKT0MNkwfhxrWiSlZeWIiYlBVFTUdYmJjcPk5OTiEcKjvaOTE0l5RRX5dVyHmrr6VVNWUQmlsxqorWtYTO3auC2RGHbiLy7DUInswwOL60RdJFMRRphaOmYadVHmOKrrCvv0WvSUBcH/0FvYdOgsJIW1kURYwfbQJ3jriC7OktLe6ttIdKFnYAjnhCLEBJgutZGkBLpBWdvtOm0k9QjxsOeOPXP4BE7rOsK5vAvTE2W4tPtdHD99ozaSG4hkuAsNsfZwPLQJu1fZRrIgkkF0lIbB8vVHsUeM30aSi1C5LfhiuyTEZdS4a9U1t4ceEU36ZftVikQWRkFukPyvd2ASWoXSwVKkOhtCxyAEXRMZ8JQg++wzhTeXjuA9ZjBujTUtkoSEBBSXlOC777+/LvHx8RgcHFw8Qni0tXfC2NwaGVk5SMvIRGp6xqpJSE6BgrLqqkTyK/02/K9RO/5ofJXf6i1I4r90yTay/H+L6/+P7Pf/DMg6g1b8SrcVvybHirpI5qNNlx0zUpsE3QshuJTVhvnhVoyk20D86D6uV5G8qRWc9mkjqKSXazOZ7yxEcYA+t41y1tQOrmecEdXJw+js1TTn54cxNZYBw4N7l/b9YtduyHskwNVMY6nX1mhdKgzMXIX32qotgo2W1OLxGjByTUc1eU9zM5Mo95GBmLT0jXtt7VJHdvMIuZZubtlxpzoC8zvRMk6ur7sEFaS0RdOWMFKB9DFFSK1XxIUOHvoFe23NNsJPzh3R8ZVcg/hoVzVy7bdB7CC5JnVhvbYIh6XxhVM+CpNCcckiaLFERsVRgST7c0vreLwebvmiuTP8s1iJhHH3YSIhQUWib2yO6LiEWyY8Kgbyp1VWJZIn/CdhWfs1Oia/XeQrKF6gJZUO/Nl8CPZ936B0cVtp21fwiRuFTVI/HjbrxbuB4yIvEjpEysrjfslMN4fAS10VOz+wRDy5Z7RtSNh+DMZah4mERFt7B7T1jREcFrFEclo6ikvLrktsQiK3n429A6TllFYlkj/a9uJtryEcDR3G0YgRHC2Yx7mofvzNaRCyBV8hqngEGnFkG9m+N2gEu4Im4JE9iL+Z92Fz7DQTyRqjwlcKCvs/xusnvFFF7tmkkH0YjJ8Da14khYWFKKrqQ2RK8zISstowPcNDbGwsOjs7UVlZiW+//Ratra0YGBjAzMzM0joqEk0dQ/gFBC1Bq6yECaSopBSZ2bkIjYji9tPU1oOEjPzq2khMurHeewjyyePQSJuERtXXiCsaw2f+Y4jqm4eZZzueMV5sIzHuxoMeE3DPWhRJjGgN2kjXrfx8mEgGUZ/uBRfZhaqoDS9/ir3iJnApacMY2T53zf4Mxs+DNS+S3Nwc+EZUQsMqfRkmzjnoHxxFdHQUmpubERERgStXriA7Oxt1dXWcTPjrWts6oK6lD0+fy0sEhoQLrcqKjImDt1/A0n76RiaQPKXIieS7H77DxPwV1AxcQV77PHLa5lE/9BW6puaxzr4Hz/qOwbiUh6L+K8jpJgx8i5z6KShETKCiewzbzNvwl8WG9WtEEjnBRCLyjKKzPAnRTgudAHR1L8I3qmyx5xiD8fNlzYskOzsLY2Nj1yUyMvKmVVu0666qhi4uevrcMm4XPSGrcIYTSc3AFM7ndEE9cgD73DvxmXMHTvh0QiG8CX9wHcWl1ln4Zw1hm2kLfmXQjocuz8C3eBziAWOI752Djns7njBiImEwGGuLNS+SjIwMThTXg5Y66N8bRXNLK5RVNeHh7QdbeydY29qvGmdXd65qq7qmDueyxnHMuwdNw19jp1sn3rFuwbOGjbhHoQb3GHVBOncOQc1fIamOhxBCQNWXiC8bxTs2fdiUxEN2Jw8JzQvbLhXNwiRmAt78NhImEgaDIaKsaZHk5uZxjek5OTnXJTIqiiuZ3CioSGTkFGFgZAotbT2oqWtDXUMHGpo65LUW91pwWVNLd2kfHT1DnJSUJiKphUnCMD6wbUNm8xwUg/uxzaUDzxsRkchX4x4tIhWvEUimTMO+YBq2uVPQjSLLQb140KADf7AfhFLWFCzJNrrdOHkcp7z7cdi3G38mEnrKrZ+JhMFgiCRrWiR0EMWsrGyhDyLyKSgs5N7ojYJOMK+uoQUJyVOwsrKDiooGtLUNYGxsDnl5ZW4oFMFla2v7pX2Uz6hBV98QbW3tnEieISUQm5RhVPZ+iYCSSZzw7loSCVdl9SNgImEwGKLImhbJnYqvv/4aGRmZ0NEx5Eb/dXZ2RVhYJPLzC4ks9JGcnLJsmQ67wt/H29uPa7z/6quvmEiYSBiMXyRMJCToMPC0RGFvf44rdaira0NLSw+6uoaLJQ/9ZcsGBiZL+9ARg6enZ7g0mEiYSBiMXyJMJItBZVBQUISoqBiEh0csEklKHfzXgsuRS+tycvK4Z1Fo0Mb2DXaty0QifbkHz5s24390hcvhVmAiYTAYoggTyWJ89913RCbT3ERV/f393HMmlL6+vqXX/GXaC4y/Dx0Qkj+xVXbbBDSj2iEX1Mt1AT7q1Y1jXp3QjW/DH/nden8ETCQMBkMUYSK5SdAh6Ovr6xeXbhzffPcNeqfmkNo0h4DSKfgWTSKtkchpZhpB1dPwLidUTMO3chZ+VXO3DBMJg8EQRZhIbhK0tHGzGRCvF2XVjTjnGQwLZ+8lPINiuPW3E2tBJNNj/aTERkpuo9PXpCEIHWl3qLMPo1OzmOFdu31mahxDvUMYmyX7LttOzz+B/s4O7l5QaAeJgbEZTM8J7icAbxa86VEMdPdhaHQSU9fbTxB6zMzyY1Z13GrhTWOkZxhj41OYEbb9p4S81/nJQfR0d6K9ewBjU4vzz991ZjE7PYahjg50LX6WdEqH3tEZzMwtfMeEQ7dNYrR3AMPDE5i85nMh6c6Q709HL0bGp6//vWDcMdaUSH5oyV/c9acLWiKhE2TdTgTHpMIjKA6p+ZUcQbGZcPII5tbfTqwFkZR5SkBRRQr7XYuuSUOQvuYUqD11AI7pHWgYvXZ7Y24wdLdp4GITj5ToBLcNYGI4Eieee4qbiZHy6GNPQdq7HsVdgvsJMNGB8QonSL91ADrOycjuv1EmtchkJyYrz+HUOwehfS4JWX08DqH73gZzs5Ww3mgAT7881Czez/8Yw23gJapg67svYN3bkvDNaRK+3x2nAx0VF6H+97/hJf5n+eTz+PxcNaq6JoXsz2eUfAeT4bRdCuZmYUi+Zhj8TnTVBEDz8Z2wCylH2ZDgNsbdQGRFwutvvyaj+meI4uKuP13885//5MbqupX47rvvUdvYBhtXX0SlFaOpd4KjqK4Lbv4xMD/nhayC8uvS0z+0mNLyECWRfNWYf83ncyVRG/YaMtj9yS6InzZDxfD1M0jBqXZrRq7dfuOpdoOh+PExmHgvzMYYGRWNguZRDE4K7ifA7ARmh+tRkJiN8voe9AlMMHWVkaX5RxKLO5aOKeSO6eaOEX7c7bF8YqtudFbFwnGHKgLyOtBM5zURcszdoQfdVZfh8Oaj2K/oABO/fLT0C87IeDdpRWuJG2R+8zzEVe1h5xeOiKgYpNePYHiS/JgUegxlhHwHY2D27l5oa15GTNfK7xkp2ZR7QO5/P4CRbxEKBwW3Me4GIisSyjfeh6/JrL4rIBf77Y2nzr2T8cMPP2BqampxaXUx/+VXcLwYAFMnb6QUNaCsZWiJ4MR8mJ3zuS6qxo5IyixYTGl5iIpIvmwrxzc+1342E+HSOKNjCRkxRdioyyCo6voZ0o8TyQ3mbL9tFqbWvTrVrrB97hw3m2pX2DF3hxY05Z+D5D2PQOViCXK7he1zt6AiuUhE8h6M/UtRvOoMn4lE1BBpkXxVGn1NZsXhexTfJtncFf6ZZIV/JloucSXWFKM+CsvW0X2+TbK+5lg+V+LM0O1yAqN+apgKM8RkiP6q6XWTxKivMr5JsMQ35FyC5xnykMJcuA5XhfRTcyXOlOPrcE2hn8nX3geQb7ITqk5BcPa5hGhnJdhGNWKW/2WbHcfMYC3y42MRS0oRYZFuy0UyPYjB1lKk0RIGwd/T7hZEQv+Oo7s6F6VFxSjrmMD8WA8KS2pQ3NiHiflpknF3ojopFzVciWQa3TV5iItaKNGk5OWhpK4Y+QGaOPrIG1A080YGKYXMzXahOpkeQ0sk4xxj/c0ojcxAUX4Wd2x0YhoyG8cwNr34C3p6CMPtZUgg2xILC5GbX4ry1BI0ji1vY+GL5NyFGKQ2JCDcQhZb/vs5HNN2gWNCObqHxsAbqUdRcjx3v8LDk5GUXodu8l4HOptQmVOI6oZypJNtUYTM8mY0tXWiszyFu67EglrU9Y5icqQTDenhiF98r8k5JehbKvEMo685GVHW8thyzzM4qu6EC2k16OrvQml4Bkry0pGcnI+cklb0z02Re9qA4pQE7nyxiakoIRn4OFftOIL+FiLAxByUlRUgjmxPyi5GVecoRhsykJoQzZ07Nj0fHUOCbWc3EclUH7rrCpFKjo0g0DTKWugUx0JEMkfSHWtEZlwMYtNCEBF7DjK/e/+qSGZG0FCUiWgunQxkFbagb34GPFIiqyc/3ErS05GSVoQOsl9TKflM4xfOFxOfhOKOGYwu+w4yViLSIpmbHMPXgXJCMy6GaDFdeRmOu/bA1i8F2Q0FyA+zg7FDEoa4hvJZIpEqtMaqY+9zT+OpB9fhg8NHcYyIxIQTyTQm21KR4iSBd+99GI8+vA6bD56A9A2qttR3qSC4jDbQdqGjc4Bk5M2IMz8IJXEpyF6swWhFNI7LmkL+QjY6Vs7Z3tmNIIODeO7vD3H18htPnMRZRwecfvgv+Ouvf4s/Pf0OdpyLv86c7ecg9T+v48ih7Vj3wL34+/Nv4W1Dkmn2TBBpkvfRQTIpV2m8eP/DeEvsKHbukoDUDeZsP3fBDecvnMXR+/6E/3fPb/B/f3kA9+/UQTyRYF+qIU688SKefWgd1j34Dt7eaAx/cq+yQxygtPkAzpirYOvDD+Px+/4PG0/ZwMzVGz4qG/Dwg/fi2T16MAgtQmPJZei+/xe8+I+F97rhsApy2hcEzONVIcdLHcfvp+f+H+7c6yVsEJcdCan/Wg+xPZvw5rviOHTmMrJGmjCQoYeTb76Mfzz4IJ559W2c8OhCRTft5ECE5mYA2b9vwinF4+S9/xmvfXoUihdzkGP9OT5c/wTWkXVPvLcX3rk9AvOyUJG4E5G8AQ2XRMRXLXScGJzgYZaIa7whAkH6B/HWfQ/jr+Q78fCDf4acYzLGZ1eKZBaz420YzDLElmefwvObPsLnquo49D/vwYATyQymeopgdXIrniDprHtgE7aJuSF6bBAzvFhYvL8L4u9uwPub5BHZmwvrUx9iy3MPcPfrmdfeh1LkCOoHrn52jGsRbZEQaFvJVx77hWZeDNHgSpo9hkodcXC7Kbziq9A5042GrEBYGZ9HPfklPj/fjJoUa5z5+yMQt81BXHE7YuxlcS8RiRYRSfVIGZId5KD07ieQ8W1HWX07PLUO4YXriiQQe0gGeh/NYNe9isee0oJ3fSeahlMRZmIFtc+McMHRCfbuqcgbnSQZfP9ykRSmQN7EDhklddw/QE9/PwZHWsmvX3coP7kJNv456B3tuo5ILCH269/joGkY2nP8EaZ3Ar9/QAXulZ1EWBVIdz0NpTc34HxyO8pDdKC26wOS6V5fJM7uKSgcLUNRuDmO/PpNqHtkILlxCF3NqVB5eBMMvLOQUk2EmRuGNA9dbHFtQJKvATY+8gHekLqEvLZWNIWo4Phn6/HE5pOQuVSM9rwgHN0qgx17T8PFXxN/OumFhPxq7r129w1iamkOfJLBjlWiNNoSh+9ZDzW3FKQ0j6C7JZaI5DfYLO8Bj5Rm9A3WobHUFaoP/QmSxrHILSlBhqcKNty3HcYRNagYLiMiOY29f/g7DhiEoCbJEbayG/HAs+9gq2U20kub0J7sBJtT4lA8n46hpc+SisSJiOR/8dif78f95PN87JmXoBw7iabBfISqH4DCZ0ehFtyOljZyD/LP4fRRNQS0DWNmTlAkHeisugiNR++HmXc+6jL9EaD6If7yP29DgYpkoAaFAbbQUXVDYQNJJ8UdARftcNK/CuPTMUQkr2DHNmWEZtZgPFkNW9TOwcg/m7tfnV3dnNhmWM+vGyLyIqEU5eRhPkRdaCbG+A/icxhf1cRjgBBz5gN8cMIS5hfDkZCciEhvBxw8KkV+gbZhbLAAeaGW2Pq+PqJr+tA3Q754ZUE4uFgiqW6Iga+1CcTIr8T8UR4myD9tedx5SNygRKK6XRFe2dWorq5HbS35Z5+awcz8JMZKIxGptRvvHVRBWt0EprhjVoikrhIXTNSgYX8ZfhEJyCurQ8vQyjaSheVrReIEyd+8CY+cTsxP16Iq3hYHfrMZ5nGNqGqKR6CDKY4dOYemSZL5jGYiwvQsxG4oEuFtJN3FvtjwX4/jo+0HsF9cEpInjuCYpAw+dShAko815L/QhkPREKZ5PMyNxcH52DFI7zGAa/U0eNN1cDkuA4Xt0jALcMTJLw5B3cYHPuEJyC2tXtEpgbaRuEHynrdhHEykMjSPwY4kIpJXoOlVhILeWcyPVKAm0hQf/mofHFLr0D8zg/7aNHgd+D1UffKQ1kpFog+ZJ3YjoHoEs5PkGp00ceypPdDLH0fbGA88bp0eNPSD0bV0fiqSC0Qk63HWNhyhRHY1tXXoIt+BqbZA2B5TgtRBR8SQ42dpyXZmGIGWUjDKGiYyFBBJfRUa02zwyRvqyG4awNxUA/khY4cjv3sfelQkDWmIszmFj97YgqP0Xh4/gEMKWhD3ysX4VBQRyQ6cVb6Iyr5x8Jouw/S0HE5rWsHJPw7pWTmktDlDhMO/ZoYw1oRIUkuauIN+6KrAt1luXBuJ0IyN8ZPwdYQmrpTF4MuxQcyPlaAgSAef3P8iNm7agq3bFqaZ3bbtU7z3yiaoepBSQWcxCsItsP11eVwu6kEnyUiacjzxORGJERVJSwL8rfQgfsgSCT087tmRwhBrHLzlxvYh9GQGw//0IXwupon40gGMcOuXi4Qex5ubRXeiObQOvU72PQu9pPZVisQZUr/9ECFltK6+CXXpLpD6zQaYRjWgojkZIQ4GOLHHBJXDPEx2x8Ff5xT234ZIesqDseW/P4VBZDlZFnyug4fiUCeoHjSHbwt9/+S98NLhISbDrfMh63i8ZniKn4LKATNume7Tk2IDg+Nv47OjckisF2ynECaSZCISshxUwS3Pj1WhLs4cW361BRax1eidnERPWSzsPv0H9EOKkNtNRWIE+WePIr6T9uorR8YFY8g/cwRWVTPonKDVaAvrtHUCuOWFc1+/jYTXGwbHE6cgtc8CwX2LIploh7eREhzKhzEtKJLGGjRl2mLbSxJIqurDzEgVqmL1sf1370GbiqQ5Cwn2WlDU9EPbBBHj0nun3Yhp1dZ+aKn7onbk6vdpuDwCgfo7sfmD9djvRavwetFQVInW8VnM8XrI51WA6so2dE9OYHK0DeXRmWgnedTVtH9ZrCmR3O2gI/h6e3ujo7MTcZltkNVPgrROAvYrhHKvXf3LMUuuh+7j6uqK8vJy5ObmcsclJSVxyzRmZnnkS2uC2IxiKBi7weJyBmyCcpbQPx8OJW0LDI5NIyolD2GJpPhfUImo5DwExqSjvL4NxVWNOK1jga+/+SeXJg36QdEPTNgHebcR/Dz4z5FQZqrDEWUjiwd2uCOtY4ibm3xh2wQKfNSgYOYLP/KLvybZEmceeRjHbLIRI6xqy+4UFN76GOK+7Si9adWWYBsJrVfvQM/wOIb6r1Ztudo7wO5CitCqrdTOSQz0dXPHFntrwNLCEKfDKzE1FgOjV7fCPvBGVVs3EMlQBdJdFKG4/j2cW3XVFhVJKxpzL0Lh/96Elie/aiseZx/6MzbJecIzaaFaqr2rGx2DEygMXqVI9hngEslYuWMJpZf1YGeug6jK4aXrWJVI5tvRtqxqqxSZngb4+CEVeBa2oI13F0TCE1a15QZNSXtk84aJWIRUba37M4y8865TtaWD3TvPIKGgYeF+dPehe7iffJ8FRTKH+ckh9PZ0cfvUpPkjzHAfPnepRHF7CmyOqeJi0ygpDcXC6sMD0FL1RlRnO7pqvMhntwF+Of+Z/01RgN4vJpLF4IukubkJja0DSMxqRGh8JeT0grjXJVVd3CRZXl5e3KRZ9DUdd4uO09Xb27s0gdbM7Bzk1AzhG5EMOSNXmPqkLkPTMRDyGiYk85tESU0LiqqaUN3chZLaVuRXNKC1Zxj55XVQ0DQVeZE0xVvg3NmPsNG6Ei2DU+AtHUN+BWddwDYVG2iHV2OmoxBNLvvx7FOP435hje0VoYjQ/gy/v/dhPHTTxnbBNpJ1eOQfj2OT8WXoSH2x1NjenuWFPcfUhTe2F6ZCaf/73LEP3rsF+5R9kDQ+jdmpAcSrvIAX37pRY/sNRDJM3kdVJOL0t+HPq2xsXxDJDPrr0uF/6Dd4/nHBxnYdHHr5WTx1/0JD+boX38cjqomI87JZnUg27oSKycmFY7n3uhk7T11EPb+HGcdqRDKL2dFmgcb2x/DSW2IwSutD0wgdmYA2tt9ZkczPC2tsfxuG/gWYuqbXFrm+wQYM+p7As08+dp3G9gKYHd2Exx58eOF+vLsH71skYGySVm0tiqSflFBStLBr4yvcPg89sB4vvKoOj84RdM9kMZHcACYSgeCLpKamBuPjYxzNbV3QtPBfWu7r64Wnpyd6enoWj7o2qEhOqejD2u0y5E3coX8xfhkq1j6QUTFEe/84CiqblugamkQvyVQHyT9aVnENZImMvv7m6jMzoiiSse46NFZkIKdpDJMzV9dTpgdbkVNRj8rOUcxPjWC6owiJcQtdQVPzC1EanY263gmM0i6kYz3orc3ltlHS84tRnl6GpjGSzrIhUkiGP9OBvJiFdCgRkVFIrWpFeUHWUvff6cE25BaUC+/+O9iDoqykxeOzkFfejgGSNq3u6qtORkJy0k26/2aik0iDdjnmL9d1j2GEvo/xXvTX53FpJya6wVpRFUfe1EHgKA9DAg22PN4QalIq0NTSz1W/TY8NoKuEHBNDrilTWPdfQmwSIkq70d3agMrCerQvZcj9JEMu5da1cevGF5Yzc1FevXAtC2Qip6QN44vXsMAExgdbUBKejlqSYQ6T9zA92cd1/+Uvc/st6/4bhfjkItST97QwPMli91+yrmeSfgcWlsvIcsPI8n2qqzsEhjSZwMRwK9edurZjeMUIBoRruv+moLZrhGyjVX09qMsoQHVVOzkn2XdmEvM9ZYiPjUJsWhqyKmtQQtNtH8IQ/SGyrPsvISkLydXdmJ3r5rr/0nRGp0m6JI3MlLjF+5WIeFIa7JiZxfT8AKvaugFMJALBF0lFRQVX0qA0t3bAySN2abmzsxMeHh43FMk0EYm0sg5O69tAwcwDWuejlqFkdgkSp3XR1D2KqLQixGaWIjKlEF3DsxicvMJBh1SROqMn8iJhXJ+udAuYSR/Bx184I5fcs+UZOIPx84GJRCCoSHx9fVFWVsZVVQmjra2Nq9q6oUjILxhJJU3sl9GAgrkn1JzCliFn5IYTchqoI7/C6toHyd8hjg4iks6ROXSTX3qJOWUQV9TE118zkawdJjHUUY2ylIVfvXYKe3H80BEcdUhDB7ln//HBGRmMuwQTiUB8880/kZmVjaDgYE4owqA3Kz4hEWPj44tHXRtUJOIKGvj02GlIG7njrH3wMqT1nHFERgVVbYPwjcqAV3gqwlOKcDk6Cx6hyUgvaSSllBIcl1XFFSaSNQOP14OycHNofbTQJrFu3W4c0wxFPrtfjJ85TCQC8a9//5srldAJruiEVRRanZWdnb20TMfdojfu+++/Xzzq2qC9tk5rm+KTw4rYq2iOI+oOy9gnb4R9YooobepHQW0X8qo7UNzQS153IreqHRWtQ4hILcQhCSUikq8XU2UiEX14mJ0h35OxYQwPU8YxPjl9dZgYBuNnChPJTeJ2Bm2k7RpxKVmQVjXC1kOy2LKCzfskse2QJALjsxGbVS4UR88Q7Dshx0TCYDBEHiaSmwSd1Co5OXlx6daCtqPQHmArCQqLxCe7jt6UQxKKTCQMBkPkYSK5SfyYGRLp8yV0YqyVzM3x0DcweFMGh0eW5oOnwUTCYDBEESaSmwTN+GkpQhSCiYTBYIgiTCQ3CTpDYlNT0+LSrcXg8BiKK+uQV1K1RGVdM7f+doKJhMFgiCJMJDcJ2thOe3HdTiRnFcLqvC9sLwRwmJ3zhp27P7f+doKJhMFgiCJMJDeJ221s//77H3DRPxLhSbnoHp7lKKhsgYtPONwvR+Db7767Lj/8cLVdRDCYSBgMhijCRHKToA3mfX19i0uriy+/ugJXn1DYkFJIWnEjKtqGOcqaBxGWXAgHj1C4+UcLxcj+EjLyShdTWh5MJAwGQxRhIhEIWo01NDSMpqZm1NbWctDhUoKCgpaW6+vr0dvbh68FuuWujDnePLTMnBCdUYqihj74xuXD2isGFpcib4qYqiV0bC4iICYDUan5+E7gwUcmEgaDIYowkQgE7aGVlk4y8KhoRERECCUyMhJxcfEYXRwyXljQSXg0TBw4kWRVtENMywEbj2lgq6Q+tp0yWRWfiOvgc0ltfCXyQ6T0o6c+FSGGxjAOLEJFx6jAtgHk+4chISIPlcP8dXeKEdRnJiHGNQq5/fOYWJo+9sfTXZ0N3/MRXLrjt53uIIpCIpAQnIVybij2FdvCPGGmqwvdRYxtnOGe04/+McGJl1YyAd5cDVKCUtDATWG8kiEMthciPjAD3ctmQWQw7i5MJALBH/23q6uLK51QaFvHN//8dmmZZqJ0nxsN2jg7Nw81IzvEZJYirbQZn5zUgqLVZXgk1yKiuBdhhV3XJby4BxElfTgXUQgJbUeRn49kfr4eFbGmOP6bh/HINiXYx1Wgc3RhG49XD5c9J6Eu6YSgtjtbiuHxOhFnoQ2lt07BoZ6HgTs4FWpzThgMlJwQ0cFbGBpeyD43g8drgvtRKagesYJf68r33oRLYjvxxhsf4cOtCzNK7j0pD9XwDnQsmw1xJYOYnYmE3iE9JHYLu5/NaMx142ZGLLtGXgzG3YOJRCCEiWRiag7nfVNuUSQ8qOhbc8PDx2RX4Z19SrD0z0BwbivO+UZASUUVp+RlhWLp4gn3yFzYB2dCz8Gbkxg/RFckDhD7nzfwyXv3Yb+pHwJKp7jxpdaqSO4ENxOJh4Ts0rS6y7fdCCYShmjCRCIQfJHQOUfooIyU4fFpGDqELy3PrVIkZ3QtEEdE4h2djS3iOrAPzUdAZgNMHC5ARUUJoSEBywjw94GxoTbOqChDzcACZq4B3AyL334n6m0kCyKR/sMH0LdXxV5JO5hdyEUn2YeJhImE8cuAiUQg+CKhc7Y3dYwjJr0VATG1kNML414XVw8szdmemprKjQxMhfLtt99y85TQZRozRCRK2qaIzyqFrVcUjmo4wTowGx4JFdA2s4OaqhLy8jJRWJCLwsI8jtzcTPj5eUJfV50rmeiZWqGosh7fk1IQP0RZJDJ/2gyzyGzY6EpAW98Adpl914pkbhq87nh46spj/7Z92LPfFfEdQ8iPMUV4sDtCa2i6s+S4MgRZeSGjjyzzZsgxCfAKTUNkZuvSeW8mEt5oHXwMFCG2baHqaMeuvTCLbUNN/8L22d58mIsfwSGy7aiaGrScPeC0SwOBBV2oKUuF67KqrQHUp3lyuMgupCd21gjpLfMY7axEtt02nDywsH6brAFUgqp+nEgGi+CsLrOQHkHNNQ6pzXTbCpFMD2CuLQQ2MsdxhOx35KwcTlsYXxXJWBNas9xwhmzbw6WlBl3HZPSQa/NXNIaj2lmoqelDUtGfG+r+6nz7DMatwUQiEHyRtJGbkpTTClXzVJw2TsJBpRDutUdIJfdwIp3Yik63S4dOKS4uxpUrV5CZmbk0lAqdaldew5iIpARadt44YxsIM980uEQUQJWUNsRJBuZ8zhpurk644HpuGRbmhpCWOgFtHU2MjE9xQ9vzQ7RFsgVmSe1ITbaFi64SFM9cRvOYoEjGMD1WhkQ9ZWjLqUBNRQs6JxSgRkQde0kJVla6kA5sI7KZBK/RHaePKcIyexi8mXEMJqtz0xM7xDQvnffGIhlHfaIzTp+QhYSsLnQ1T0NL7jPsO0rueWwdmsYGUOCli2NHVaBwWheGxso4K3sQb/7uQ+jGNCInxReK66VhXzeHvqlB1Ka4wtVAjuPUqdNc47iNmx/Ke+Yx0d+CqjBdWJvSRnNpHDsmhb1Hz6Fx9GZtJAew7aA8TqktNLZbOLgiso6H4clmFHvrQklcgazXga7STpw8qQm9cxlEDoIiGcRAUwLC5Lbg5NEzkFOi7+MM1JQOYT8RSelQF5rS/eEpJwNxeV1oaJHzyChB09gNOV15MHrtXRz49CjEtM7DziUNteQznVx2jQzG6mEiEQi+SGpqqq/O2d66fM52OkviaqbapXO2B0SnQlbfGXrucdxc7eY+KVA1O49j0go4LCbNsX/HWzh58EPs+OR5HDp+Al/sO4Jtew7CzNp2MbWrsRZEUjPSj44Ub3jqqMEuJQlOuxdF0tCKkSoHnHj0OWx493McOnYMJ754B8+dDUNExHm42VrhoGoYWsYGUWgrARUddUjrRaNlpAbB8ntgdCECEQ2TS+e9oUimOhCoQ4TlkIDsIXKts+OY6imC25FXoekYgLCyUticVoNHVjtax+cx1Z+PbE8VbCIi0RcUSe0M+tqj4XBcCnLS1hzeTWNXz8ObxewQKYmmnYeGigLEJfbg83c34qPXJZHU3XjjEon4URw9YwXzCz7w8fFBcEQc8trnMNYRBOv9ErD0zib78cAba0S08XHoqZ6FXREpES+KJKGpEtVJ1vj06aO4kNJEpD2P6YEiFPir4wQVSQspwZlJYvNfnsG7ByRwVEwSkvs249PjcvDJTSAi+QhyyhfhX/PLnWeccedgIhEIvkgE52zv6u5FRu7V5VXN2T4zB6nT2tA0OwdZ8gtQwzliCXWnEKjZBxD8YegaBj3FtxHotAfiO/4CfYdL2K9oglPa1ohOzlpM7WqsBZHU0h5bM12oz3SDpvoxyH6wKJLaJgznW2D3I2LQdYlBGXkf7R2daB8Yx/hEE7I8bGAufhIO5XE4s8cKIQFBsBdTQXi5I3btMMWlmAp0zl097w1FMt4KbzUtmHvnoHLxWmcnR5Gq/TQMXLzgn1UAEw1bpDb1YZg7phE1qecgRURiukwk0+irvQS9L85CUeEyR5bgex8qQ0WINXY8fAqOqSQTby9GnLMpDA6uQiTCqrZ45N42e8JotwpcIkuX1pd6iMHRRAYmmQIiqS0h990a775rg4Tqbgxx+15tIymtjUewvga2v6QKL3Kvq+n9pnT3YXSymIhkF3QMQ5AgtK2Fwbg1mEgEgj5kGBUdzbV/5ObmCoXOlhgSEkKkMrR41LVBp9qVUNTEITktnDJ2h4pDCIfgdLuqZNnMMx4Wau8h1e8gpHbfC1M3f2yX1uUeSGwkJaGVsWZEMj+N8a5COClvxwt/eQu7qUiaOzHaegkK/3gVR856obznaumCznXeluwOn9MbseuUOLYqRyE/OwNhGrugYaqKjaqxiCjuwdTS/jcRyWwPIoxPQckwFLE0E5/qw0R9IFTf3w+TS4nI6a+G86lj0A9uQEXfPEbrYxFltBePE5FoLavamkXfYAF8Tx/CKbGzHIZpvVfP05aG7AsqePAlY4TUdqNvIAuR5qo4vuE2RTJP7u14LJyP7IGeUyJZJiWSnmS4ySpC7bQDwvsFRNJeh7oMaxy890Xo+lWipHceY42JSLDYh8+pSLrzEG+rhINPfIJjoe1oGpxeOg9tg2IiYdxJmEgEgg6HUldXj6SkZO7BQ0pYWBhXAuEvx8TEoLSsDLOzc4tHXRucSJQ08dlxZUgbukPZNpBDydqfe56EctrGH0bu0TA+8yYSPLbj5Bf3wsjZBxsPnYbleV/M8q6dA2XtiIQwPYRsdxW8+ODL2LjURlKCRL1DOLH7BOQUNaBrYATdwEKUd4yQjD4GSZYH8N5Tm3D0Yhmam6uRYX8MO989gBOelcjtWJjimM+CSBRx7K9v4FN5XajSNgBdXVheDEVkBSkRLWsjUYO2nBSk5HwRmteGHt4AClzO4JNDyhBfVRuJDexVxDgO7bnaRlJWW4nySEtsfXcrJJVVoGZMfjgcOoqjW25XJHQ/wTYScu1K0lCQc4CjfylaeCvaSMg9Czu0Hp8fUsJJoW0k7jgv8QXe3iKP02e1FtJz9EZ+UwYTCeOOwkRyk7idQRtpY7uCmgH2y+lD0sAdcuY+16Bo6Qd913Doyb+GGNePcWTrX6BlcwEb9snCxSt4MaXlIZoi6URLYQTOHdBBUGkf2ieuHjNSmwRd+bPQdIxCJu2BtazX1jZs27kH28zjkV43gPnROtQmXYLaPm34FfdieKwfdUkeUNurxS23CaS7wACKgu2hz/VGusoxdTucy+hb0WtrH3bu0YRHYTfXJkKPn6mPh/SJ/dwxR8/IQF5bG4d+tx02Kc2ouKbXViOKwxw4DBfPQ3ttpbWMoq8xDUHKJI3dZL2kOmTPmsDV2hGlg11IIH8vWYUgrXdlZt2NJAdnBOR1oGXxepaxrNeWPMwDclHCdecdxdxsHnwtfReWx7oxm+cABYlD3L5HVFSg6eaFixZBaKJPvl/Ta4sgo4uY8nyu15bP5WwUDy6ek8H4ETCR3CToDIX0Rt1K0EEb3bwCsOnAKTzz4X48+9GBa9l4EC9sOgTFI48hwvFtfPHe/+KVj3fine0n4BsSu5jS8hBNkax9ZnqySelJA2/9SRFelZ0YEbIPg8G4PkwkNwk6/hYdrPFWgj642NnTh4DwWNi5et4Qmf1P4cyhB0mJ5K+wtHPA5dBoNLV2LKa0PJhI7g4tqY6wFXsB//euNaIaelk3WAbjFmEiuUnQGRIbGxsXl24tJicnMTAwcENCvC3h4aCKIE9zdHa0YmpqijunsGAiuVOMIt/PGEdoddS2bdj49mfY8oksDDMb0DI+hTmhxzAYjOvBRHKToCUSOnT87cS///1v/PCvfy2DVpXR9bcTTCR3ihn0NZUjMzWZa/9KTs5DXlEL+sk2OkaY8GMYDMb1YCK5SdxOGwk/ymsa4eIdwk23y8c7JJZbfzvBRMJgMEQRJpKbxO20kfAjJDYVFwNjkZRbwREQkw5Hj2Bu/e0EEwmDwRBFmEhuErfTRvLdd9+jvrkDNq5+iEorRnPvBEdRXRfc/GNg4eyN3OLK69I7MLyY0vJgImEwGKIIE8lNgs5BQgdqvJWY//IKHC8FwMTRCylFDShrGVoiKCEPJk7e10XFyAFJmQWLKS0PJhIGgyGKMJGsCNomwp/EijI7O4uEhIRl627WYE7nbNc2d0Z0RhnKiTxKGvtXjbmzH+JSc7hSjeAQ8jSYSBgMhijCRCIQdDj4iIhIbmj4pqYmodD2kuCQEAwszj0iLOic7erG9tyc7QGJhdh4XAOaLpHcCMCrQcHSD6cMXeHqH4Nvv/1uMVUmEgaDIZowkQgEf/Rfwal2v/zqa5RUtS0t00yU7nPjGRLnoWpgy83Z7haShkNqDvDNaEJoYTeHX3oD7ANSrou+SzBULNzh4BGMfzKRMBgMEYeJRCAEZ0ikVUs0Ex8cnYKBfTj3+tvvvuOuhy8bWr3Fr+ISfE1nSFRenGrX2DWEGz7eLa4CHsm1HNZ+yVDQMkdiZiEyCyquIauwApfDE6FiYINvvrn6cCITCYPBEEWYSARCUCQJWW1QMEzGKb1E7FcM5V5fCKxYmmrXzc2Nm7ckLy+PO44+2EaXaczM8qCoaYLYjGIoGLvBwi8dNkE5S+ifD4eStgUGx6YRk5aP8KQcZBRWIjo1H8GxGahoaEdxVSNO61jia5EXySxmJscw1NmH0Snymrf8ONFiCmMDgxgeHCWyF1xPrntqDIMddK6OWa6Na/lxt8sMpkZHMNQziNFZcg9F+t4wGLcPE4lA8EXS3NyM+pYBxKU3ICimArK6QdzroooujI2NcVPt0nlJRkdHuWFO6PDztKqLLtOgo//KqRnCLzIFckauMPVJ5aba5aPpGAh5DRP0DE+iuLoZhZWNqGru5F7nldejpXsI+eV1UNA0XQMiaUJNijvUnjkEx8xONNBRZwWOEx3oXPDZ8JU9C2MlN1SPCL6HFjRke0D1sT1wSG5B35TgcbcPj1eBjAtW0P7kLNwaeei/Q+kyGKIGE4lA8EVC515fmmq3rQuallen2u3r6+Xma79RGwkVCZ1q1/rCZcibuMPgUsIyVKx9IaNiiPb+cRRWNaOIQP92DU2id2QagxPzyCqugayaERHJN4upiqpIrjMfyV1jGFNj2fC28Fsxl8fNoCJJhdshCaidsEU5nYJ3advyGRJ7JwWPu314vBIk2elB8VUJ2NXx0MtEwviZwkQiEHyRCE6129TSAcdLMbc21S4RifQZHSgb2ELBzANa56OWoWR2CRKnddHUPYqo1ELEZJQgIqUAXcOzGJy8wpGaX0nS0GMiuYY+jA+FQOegPlKvmefjRjCRMBh3CyYSgaAi8fHxQXl5Ofr7+4VCb9jNSiR0hkRJJU3sl9GAgrkn1JzCliFn5IYT8hqo6xhGfccQGjrp32F0jcyhe5SHnrF5JOaUQ1xRE19/vcZFMtmF1opcJIeHI3yR7KoOjHCZKk1nHN1VOchNWNgWGRWDgpZRDA/1oy736jHhWZWo6OjGSG8hcv00cOiDQzAJz0NW/QA31zmdp706NxUJ3P7xyKvoWDEc/C2IZHwSQ+1lSCdpRXHpZSGvvJ1jgOzPm5tFTX7swnXFJSOyrAcjkzMLaU0PYZgcS68jsSAIrjrqy0Uy2YOO6nzEcunmo7ylHyPkHowNNKMkIh0l+elISspHVUsr6tPDER9F9wtHcm4p6vr518tgiBZMJAJBx9XKzMxCcHAI/Pz8hOLvH4D4hASMjY0vHnVtUJGIK2jg02PKkDZyXzZXO0Va3xlHZFRQ1TaIy9GZ8I5IQ0RqMfxjs+EVlor0kkbEZpbiuKzqGhfJDMaq/eCmtAPr71uHdQ8/jIcf+BM+PeOBwrYpks4kxvrzEaCxA3tefgjr1q3D3594BtI+jaguz4P9UXLMOnLMw/fiT5vP4qx3OMpSbaH40F9w7//+Afd9JI49LvngzQ5juOActHdtwMsPkWMeehEHVS+jeYYIZula+CI5gdP79ZFc3c7dywVykB5khqNEJMZEJJ29Tch0lcWHDzyMfzxM0rv/Mxw468uROD6LuekJWIu/SK7tATzw7Ov4y4lAFDQPYYY3jcmODGS5SuPF+x/GW2JHsXOXBKSWRDKFsdpQ+GgcwLPkOh++7wCU3dNQMNmA+iwXSP5qPU7u34w33paAscdF6Lx/L174x8J9+fCoGhzyBe87gyE6MJEIBH1inU6tOzU1jYmJCQ5anZWVlbW0TOcYoRkpnbzqekF7bZ3WMsEnRxSxV8kcRzUcl7FfwQj7xBRR2tSP/JpO5FV3oLihh3udW9WGitYhIpZCHJJUwpWvv15Mde2JhDdZBYf9eyF/0hTuJSSzJ6WM4cYYOEoehJVfMsY7YmH26UZSQvOAX1EHhoeHMTIygolpcp6JQbTkR8DF5RxBGUfe2g4JKUcEtXRgoM0Hans0EdNCfsmPd5J0vKHy4vs4dPA0zlq6wMXaAFJq+ogsJ6WVpevki+QL7HrqHew5LglJST4HsG/bJrxARKJNRJIVfwFHnv4YhwydYe1I0tM6CWk1XY4jnrWYJyWS+rxocl3GMFQ5iQ2/3wQjclxVdy5iz2lAerMYYqqH0ZHvBlvpPdhARVI7g57+OJw/cRCH398PXRtnuJzdhT1aLjCMzSAisYfEf6/DIbN4xFQMoCnDDX/bqAC7sCJUtfZjlJSSpmav3lsGQ5RgIrlJ0IcQZ2ZmFpdWF7RdIyYpAxJnDLBpvwxBehkf7xHH9kNSCEnKQ0JulVDOkV/f+07IrW2RDORCY+sZKKsGIVfgmEKXPbDxDiClCEvs+ZssLC7no2pZmvPoKoyDhbgcjujoQENHEYc++AxSyvYIaOtd3kYy3orRInPs+8eH+GK3OGR1daFLcfJDafuIQJqrr9pK9rfGR49uxmGSjrpAepQLKZWY6UqHzWkVnNJRxWnpE/j08Q0wiG9ARW0M/B2tcVTSDz3k/SxrI6EiqfWEwa69+OSN3VDip3sxBlFleUQk5yH16/dhElHLdSIY7SiGG9luZWEKQyNDOPpEIr2Vf70MhmjBRHKToDeJPiNyO0HbUaqrq68hMCQcH39x6KbsF1vjIhkpguHnYlCUu4CYAXIM15bRgki9o3AIiMZo9UWcemkPNJ3jkN43JZDmPAoCHPDF9nPImJvB+Fg+vOSloacuRCRTHRirccLJx3ZDxSYGaSvSucrqRZIWdh4HXleCY8Mo+knpaFk6oy2YyNGHjOxF1E23ozHDC2df3ADzRCKS5mSEOBjgxB4TVA7zMNkdB3+dU9jPF0lrICz2SkLiCDn/8LRAuk3XiIRbT+5XT7I19I69hc+OKUArYVzgGAZDdGAiuUnQ6i6acd5OfPvtt/iaiGAlM7Oz6Orpuym9/YPc+fkhuiKxg/QfP4RWQCEyahfaHTq7ezE61QAvsa2QO6AMo0iyvrUR7Tn2UN2hCe+UCkyOlsBP4iUcUTCFRUgZdxx9GHRgbAYZflZ4X+I8slqb0FR4Dqpb9+KkFBVJPyaGoqB9QAXB1f3oHe3G5EgkzN9+hpTyjGActJBOe08/xqdnBa5z9SLJz/SE1MvvYINhJnIrmpbSo/S2VWM8VhmHNdxRWpOIpAuq+PAPG6AXTUQyVIF0F0Uorn8P55LbUR6iA7VdH+AZro1kFj2TObgsvwOHNx6CR1L1Qrp9Qxgcr7tGJLOTIwvbCSW+OrAx14V8yH/ms2cwbgb9njKR3CB+zMRWdzpEVyRGOP6r3+Lhex/EA7Sxe906PPPeF7iU27Oisf0RPPzAezhpHoXawWmSzjjG+kNgf2AzPrxveWN7bqo/xF/5Mx545FE8vPEYtr77KVR07RHYNouZ8R7o7vzbisZ2O6htfxfPL6azbqMYQoq6BK5z9SLp7G0kQpDEW398AI8+9PBieic4vnBIxfRQNqQ/eAwPvfQ+ntt0DGJvbYBJEhEJKWVMVkUiTn8b/nzdxvYgeKruxlP3L17nbl1ohMRdI5KOJIeF7YQH792M3XIeSBgXFCODITowkdwkbmdiK34MjYyjtLoBBWU1S1Q3tHDrbydEUyRjGOmpRVF4OKK5Lq0L0Daipv6pFd1/IwipKGrsxTjXcEzT6UNzQSbX1ZYex+/+O9jfidJksi4iEuGpBchKz0FVTSM6Jmj32xlU58UgPCX/Ot1/CSl5aBucFLjOhXO1FJagsrgBIzP89ZRxjPY1oTQqC3Xd45iaXtn9dyE9SkZ9Lzn/MErTyfnjUhCXXojSzEzU9ZH7QNMc70V/PdmXHJNYWIjc/FKUp5agcWweU3RYlmXdfwmZ5Shr7+a6/5ZGkHS6FtKZ6K5b2M5BSkalbdyc8levmcEQHZhIbhK309jOj5TsIli6+MLa7TKHqZMX7C74c+tvJ0RTJAwG45cOE8lNgt6kpKSkxaXVB23buOhPfk0n5aJnZJYjv7IZLj7h3PoffqATaAnnepNmMZEwGAxRhInkJkEHZOzr61tcWl18+dUVuPmGweZCAFKLG1HRNsxR1jyI0ORCOHiE4oJ/jFBMHDyQmV+6mNLyYCJhMBiiCBOJQNBqrOHhEbS0tKC+vp6DjrsVHBy8tEzbS/r6+yH4xPnKoMOFa5k5cTMk5lR1wsY7FjZeMatCQt0KenYeiE0vRFltC3dN/GAiYTAYoggTiUDQHlrpGRmIjIxEWFiYUGjjZ1w8HSJlbPGoa4NOtath4sCJJDyjHG/sVsBWSX18Jm24Kjad1MKOUwYwdw1gMyQyGAyRh4lEIPij/wpOtUuhMyPyX9NMlO5zo0Eb6VS7akZ23FS7XtHZ2C5rjMtZLYgs7eeIKOlDRHHvdXEMK4C+ayguR6WSc18dioWJhMFgiCJMJAIhTCST0zy4+afdokh4UNG35kTi5J8IKaNL8E5rQFBeB4dbVCHOGp+7Lgp6dpDVsoSelSu++ee3i6kykTAYDNGEiUQg+CKhc47QQRkpw+PTMHQIX1qeW6VIzgjM2a7pHIEL8ZVLc7bb+KUszdmeXVQpFP8IOme7LZuzncFgiDxMJALBFwkdpqO5cxzxmW0Iiq+DvH4Y97q0dmBpzvb09HQMDQ2ht7eX69nV0dHBLdOYISJR0jYjIimBqpUnTLxT4BBWAKeIIg7ji9FQ1rUikppBfVsPalu60dYzyL2ubupE3/AESqubiIysmEgYDIbIw0QiEHyRtJGbkpjdijOmKVA0TMRBpRDu9aXgCkxPT3NzttNZEukAjIWFhbhy5QoyMjK4ZRp0ql15DWPuGRI5w/OwuJyxDJ1zIaREYob+0SlEpeYhLDEb6QUViErJQ2BMOsrq2lBY0UBkZL4G5mxnMBi/dJhIBIIvkmVztrd2QdNi5ZztN59qd2HOdn/Im1yA/sX4ZahY+yyfs716ga7BSfQMT2FwgofM4mrIqhmugal2GQzGLx0mEoHgi0Rwzvau7l6k5ZTf2pztM3OQOq0NCRUjKJh5QsM5YhkKJu4QU9RCQ9cIN7psfmULcsqb0D0yh/6JrziScysgeVpn2fMqTCQMBkMUYSIRCDrEe2RUFNLS0pCfny+UnJwcbipeKpXrBZ1qV0JREzvFVSBrcgkqDiHLOGVwHsdk1VDTPoT0ojqkFdYSkTQjt7IV2eQvnYI3PqsMJ+XVmUgYDIbIw0QiEPR5kZraOiQkJi6NvBoSEoJLly4tLUcR0ZSUlGJ2dnbxqGuDm7OdiGTL0dOQNLgAZdvAZUjpnsMhqTOoaBnE5Zgs+ESmIyKthHvtEZqMtOIGRKcX45jMWVxZYyLpyPdHSHgAPLPbhG7nM9Zfh0hjT2Q0DKNv6trt/S2liHGLQt7APCboqLlL28YxM1mNzPBC9ArsL9pMYG6mBilOccgvakGP0H1+bgxjqDMXkfp6sODPBkmwuZyM7vYiZAYHI/ByKkqGJjHHq0OGmz+SkivQL+S7wBB9mEhuEvQm3eqgjbSNRFpZB58eOwNxPVcoWPot46SG3dKc7eXN/SgjVLYNkdcDKGvqQ23nGCJS6Jztp9fADImL8Gc/tDiCQwf2YJdB8A0zhZ76WEj/32aYJbaiZuTa7XXpPlB6SxaO9TwMTgtu68P4UBgsJC6gijeG0d7F4d97xjG6bGj4O8kwehuqOcrTSrkh4enoBcL3FcYApicioPfCGThfzETFf7REN4FW8kOornMEwz/qfs0QulGXlo/qmk70XPNZt6K1+Bykf30f3lq/AR9s2YZt27ZB3NgHzbUJCLGygoXJZST1DGN2Lgamb++Btk4A6kZZaXctwkRyk7idGRLnv/wKjhd88NFeaTy78QCe+/jQMl7dchi7j8uhuLEPDb1TC/RNExZeN/bPICy5APvFFNaOSGZJSaHaCWpKatjz0X6oSsshuev6EzHdCZFU8hpQleQE6d9vhGlcM6qFpHMn4PGKkWCjw6G4Xgr2dbzF+VRWiyiJpAWeEqdgHFKF0iFh21fLMLkv0TB+Yze09YIQ173yPVGRuBORvAvjgDIUDwpuE4Smw0Sy1mEiuUnQ8bfq6uoWl1YX333/PVo7uuEXEgVr50vXoKJnjs27jkHF0BZa5ueEckrVEHuOn8KVK2tDJHOTw2j1OggFi0vQNTbFZXMJuGb3X7MfHyYSYfv9FDCRMO48TCQ3CSqShoaGxaVbi8nJSfT3919DWUUVHFw9b8ol3yB8uyYGbZzE5HA1wqS/gJF7NELTY5Dqow8zryJM8PeZ7MF4nT9MThzEwW3bIKWjtlwko3WoJVI4TbbtIpxSUbmhSMwlLOETZAqVt1/E3//7Pjz71sf4SPUiLmS0Yn6qFymXDHCIpLNtmxxk1YJRyJvFBK8McZYOuGRkA3Ot09hNtmu4JyM2JQ0pzqe4qheKRUjx4rnoey1HvJUcTjz/FMdjf3oUL2zaCf2QEnLNDWhMc4EyOYamRY+VNXBBUNXK+7NcJOW8biQ5nENApA8stJQhTo47In0GTvmzqIqygonyYezcfwSqYe1oHypBkp0TLulbwSvUFWfovrKaCCoZWkybB15PMgJMz3Dp0GuQ0XNERS/d1oPu2jg4bjsLR+OzkJHRwIltJ7Hp0b/jmdc/xAZlFzgkN2Ospw75jtsgeXjh+KNmAeCRtHm8SqQ4OuPiGT1cuGCC7dsXtpsEpJIfAiFw3P4W3vrTw3jq6fV466Q2FC5XCHw3ri8SHq8Kqc4uuCisamt4EryOcDgoiuEo936kcFLWFznTsxjh9SLYQp67BophcAVKuq+my/jPwURyk6AiocPH307QCaqux+2EqIpkbqwFfQX2ED9gDK+ESrSNdaIhk0jDxA3VgzOYn21FQ5YbDDd9BEWTQJIhJsPH/ixeJiLRIyKpHqhElpcBdPYchpJTMiJik+GsK4WNNyyRnENGczIirRWx/XevQtLiMjyy6lHXWYOmHE+oHCC/uu1c4GKkCWMNVez3q0PrUALcDn2BXa/uhsnFUCS6SOPozu3YckQd+p6xSE6KR/J5sk7SHsXT9D1SBtFREQhX2WMcu5/aBnmfFOQ31iHX2xDan+2GjEMyQmOSkRzmCDsNJUifNEZ+n+A9WimSJlwS24uPDpvAxCMccYEOcNfag+de/hQnjb1wKTQRQQ4a+PvTWvAsCYDZ8d3Y/dIX2KPng5ikJJw3UYWiuhti2oYxN5ECt8PboaxgCgtvcg3xYXDQUoKxewpyepvRlOcIyXsexF5lZzgEZiErmVzH519A3MADF9JrUd01ipnxfvQV+sHfyw0uLjoQ260A/9Y59E1lwEtqP/a8thO7rEKRlEzSd5PHUTFzZPZXoyrZDDLPfICjx/VhEVuM/KYh8t3gv2cqEmcikoexcdMe7D4uCUlJSZh5J6FnLBO+svI4u8sQns3LRVLSkAvTd7filJIx9G3I52eqBwsVeez0rEVF+gUoqOvBNyyeu5ayliEMTPDPx/hPwkRyk7idNhJ+RCdnw/bC5Wug628nRFMksxiuT0O67gfYohuGgIxa7hrr86IgpSAHn9w2zAzkITfEGh9vdkJm2yBGyHGCVVvVtZHwsrGGmFwg6kna02T7bVdtDRSgwEseT//+z3hw3Tqso7yyEU9qJaKuO5qIRAJqJ2xRPkTfRyouHCbLx21Jxknf0yy3zvyoBi5zywvnFFa1NTZUh8ua2tj7rhliyDXT90T3bUqyg5fau/CruLFIPCRkYRJRi/Jhur0J9VnnIfXr95fW9bcmQuq/ya/5MHec3SMD1UPm8F28ps6iYNgbSsM4sROz1dY49pw8jFzTSboL25tTz8HY6Ty8yqhI3CD5X+/AJJRflbWiaos3g5meKvR4SeKDN57Fgw8/iL/94yNY18yhc4KKRBYq+0zg1UJKPiRtHi8DVsfUyPIQ5m6zaovHu75IcrN98MFv/g9/ve+Bq5/fc29gnXIscrM8cfrgPohdKEJzazs3MsTULVUxMu4WTCQ3idtpI+GHR2AUzvtGIDG7jMM/Kg3mzj7c+tsJ0RRJE6oTLXDqj7/FfX+8D/c+8BD3z//wg/fh979/EzpBRajrz/2JRaIPaUkXFJJ7Re9Xe1cPOofGMD1Lfr3/DERSn+4GPYU7JJLhKtRF2WDbXyRhF5eHvPYSXFRT+Q+KJIiI5AgsQjORy//8OrvQPjiBqakxdNfkI1DjI/z9b3/FiXO5yGgVPCfjPwUTyU3idtpIaLtGWXUDLF28EZVGfj31TnAU1XbCzT+GW19QVn1d+gZHFlNaHiIpks40pLqr4plXZWB2yQ/+i8/bhIcHwlLpGM46RiKusRKl0SY4/Le3YRDeguqBeZQEG+IpIhJdKpLeLIRbKEDio5OwLeJhYHIeCY5KePd2RDJdgwpyrkPb1ZDVNi5w3IIk7phIJtsQbS6PEy/tgn4BD920imWwEHG2BpDbdhrZw4IZ648VyQ4c3SQNtdhesi8Pub62OC1jj/CePswO+UHtpbehqOmLiGZyzulBJDoYwcglGpnDqxBJRzaKPM/iz88Y4HJZO3oHc2EhLvcfE0lBZQyO/OZxHDGNRXzDqEB6C8xNjaI9xx+uUi/goFUcQsqqUJUYCBdJS4Q0TaMqNxbuhr5I7B7HzFwhglXN4O2ZhgLynVuZFuPOwURyk6BzkNzo4UNhMcf7ErqW56Fj5YbkwnquLpdPYHwujBw8r4uKkQOSMgsWU1oeoiiS/tyL8DHYhxcU4lDaO4appWOmyS9dcxzVdYV9ei16yoLgf+gtbDp0FpLKutBUlcDbRCT6XGN7B+oirGB76BO8dUQXZzV0cebUMXx2U5EMoCXPH+ZvPIad4kqQdY1HbEUtemujoHl4PyRl1RcehLN0gnF0NXpH4m9LJPPzXSj0MeHQ/nA9tioawDOjFA0prnCV3oOdh3Whqk7Oc0YeynLG0LHOWPHQ4Y8VyX4cee1THNQ0Ie9HB0oy8jB1L0ULbwK8uWqkmolB5aQMxGTINWhqkGswRGBmM7p5wkQyhHhDKew9KQuZc9EIT0tHTZw1Pnn7E0gonYGakRbEvzi+CpFMkO95LXyOboL43n0k4/eEc2oL2c5/z7cnkoqOakQqfYY9O8RxQkpt4fMztYFuWDVaShLgam8OLRVVyG/dibOXc5DeUYgsD1PIPXkQVmUTyAp3xdkv9HCpeQTTc7Ewf28ftDT8EN21UnSMOwkTyYpY2ShOM82EhIRr1t8o6Jzt2ubOiM4oQ0XrMMqpRJopgzfF4vxlJKTncW0zFMEQRZF0FgQgwk0FOtGd6B9b/tzISG0SdC+E4FJWG+aHWzGSbgPxo/u4HjfyplZw2qeNoJJetNNf852FKA7QX+qRc9bUDq5nnBHVycPosnrwYUyN5SDYIR6t9Bxtpci03Ybj+8lxmsJ6bRGOymKvSz75DuUv9NqyDUfzGH0f5YjnlsOQ3kvf08K6ICvPxeWr5+0uCeMINiTpfbETRqHCem1JQtU6FGkrjp2fH8XsdB7JPN0RnVCFZq7XljMC8jrQMk63d6OzKhaOO1S5dc1k3UhvCRy/UIE/+fVtcEAGsm/vxCktWe79nDxjgJRmftokg1/Wa2svzloEoWmMbrvaaysgu21x3Tyakh0geYjsq0Z7bVVisDUboWe34cQesk5cFfq6FghtJyXDqcVeW2YBSO7hi6QSIdYeS8uVAaehd4ocJ72y11YvehsS4ETfQ0Yz9xAn/34s77U1Tv5fChB4xhTe3hnoGFvZa4tw4CS22eegItkDylKHyboDBDsEV3Sgi9fCSiQiABOJQHz77beorqlBXFw8NzQKJSgoCBcvXlxaDg+PQFFxMWZmrl9KoU89a5o5cnO259V0QdcpALvJL9Vt0no3ZcNBZWw9qY4DisY4pevAhpH/RUMya146PEhpQ7CNhMEQNZhIBII+/BcZGYnCoiKuXUQYdM6RkJDQGw7aSEWibmzPiSSjvBV7FU1x4KwtztgFkV/osULRcYuBjms0tFzCoeUcDhnjS9gpa7jmxtpi3EmYSBhrAyYSgeAPIy84Z/vUzDwCovNve872qKxKfHDoLDdLon9WEyKLOhGW1wb/tBr4xBTCN7YIPtEF8IzMhVdULvmbA/fwLOi7hOLoWXNcYSWSXzBUJKWINbOGi6EfEq9p0GYwRAMmEoEQnGr32+++50YDHhqdhoFDGPearuNPtdvd3c0dw28vEWw3oVPtKuuYIz6rFG5BydgpbwqbICKI+DJcjC+FS2AqLE3sobd9O3Q/2byEDsFw/2EYqOkjICp5MbWrwUTCYDBEESYSgRAUSWJOO06bpELeIAkHFEO51xeDq5ZE4u7ujqqqKm6OEjrVbmpqKrdMY2aWB0VNE04kJq7BkDH2gJlvGqwDs2AdkAkzGw8YHjiEtIsXkUtuPiXLywshujow378fh3ccgab1JS4twWAiYTAYoggTiUDwRdLc3Iy65n7EpNYjILocsjpB3OuC8k6MjY9xc7ZnZmZiZGSEGzvrO1JaodVhdJkGnbNdTs0Q8ZnFOGPuzs2KaOiRuEgCdAwcoUFKH4kO9si84MaRdYlIJTIClidP4NjWj2FsYcSlJRhMJAwGQxRhIhEIvkiWzdne1gVNy5VztnvesI2EioTO2R4UkwZZfWfo0oZ0grZrNCEKqto2kH/vXdieOA5HCXGOczLS8La2hq2SLM4c+QSO1mcWU7saTCQMBkMUYSIRCL5IBOdsb2rpgJ179NLyquZspxNbndGBjasvZA3PL83Vrn4unOOMjgMkPt6Ck++8BvnN70Np64YlLpnrwkL7JBwt5BdTuxpMJAwGQxRhIhEIQZEMDAwIpaOj46YlEjrVrqSSFmQ0TCFr4g5Vx9Blc7aftQ2CvL4LDu9+Fc6WEvByVloiMy0a52y1YGsiu5ja1WAiYTAYoggTiUDQcbUyMjO550T8/f2FEhgYiLj4BIyNjS0edW1wc7YraGD7CWVIG17AWftg7hkSOl/7aZsASOq447N9qti19Tkc2/0iTux9eQnpo+/D3kIZZUXpi6ldDSYSBoMhijCRCAQdkuTLL7/E5NQUxsfHOWhjOm1Y5y9PTEyQa+Lh+++/Xzzq2pibm4eemT12S2niwBlrHNN0WsbuU2b44FNFSMgZ4dRpUw4FFXM4Ojlj/1E5uHsG4puvryymdjWYSBgMhijCRHKTuJ1BG/lh7HAJ246fvoZdJ1VxXMZYKEdkdBCZkLGYwvJgImEwGKIIE8lNgt6kxMTExaX/bDCRMBgMUYSJ5CZBSyT0GkQhRFMks5iZHMEgua5OAr0+SldPHyZmlqfxn4Ne8wSGu/sxMjqJqTnBbdOYHB3BUO8gxmbJ+1waBp3BYKwWJpKbxI+Zs/1Oh2iKpAk1KbZQWLcOT/GnRiW8tnk/outFpeQySGQRA/P3j8LKORnZ/Vevi8erQNp5C+h8qgb3ppVznzAYjNXARHKT+DEiaenoQXFF3TXQ9bcToimSelTEWkPy969C3OgSXPwXZkiMT81GB52xUCCNuwe9pjLEmdvDwy4cGX0rBdaPiZEQaD/9OXQtY5HaKyiSYsRb60DxdWlu5sP+KcHjGAzGamAiuUn8mMZ2j8Bo6Fm7wfK8H4exgwc0zZ259bcToisSB8j8aQvMktpRO7r8uJ+GGXJNKXA9IA61k3YIaGMiYTB+SphIbhL0Jt1OYzsdC/hSQBTCk3LRMzLLkV/ZDBefcG49HSz4elwv1pZIZjHQWoGCikY09U9hfmoE052lSMypQ2PvKMbHelAalYm6lhoUZKYigZRiopPSkd00holpkv7sBAZbS5FG1kcuzgOfml+BBm6mOx4GOxpRkpKO3NxMRIRnICPcHGc+2Iw9mySg6puCio6Rxeug3JpIhjtrkMKdM4JQgIrWTrS1V3FU5aYhs3EM0+ODaKipRFpJO8ZIOnNL52Iwfnkwkdwk6KyJfX19i0urC978V7By8YbZOR+kFjegom2Yg06lG5JUAPtLIXAPiBGKqaMnMgvKFlNaHqIrEguI/+4JfHbsNOTo3OW6znD2SENJsR9UxMxgeyEexaXxCDwmB0n7OCQ09KK9PhLivyXHSOpAWcsQRioSkBM7gI922iK8YgCttUlwkd6LXUd0oKZB0lQ+CBlxecjrRiK3fxo5/qY4/OZ2HNa0hb7uRbjrSODgC6/ivVe2Yo+OE2IregSukYokmIhkPXZ9chjHz9Jr5COFI598jq2cSObQN9WEYBMdyCiRbdo60DlxCuruIXCJ8OTwNzmFPds9kZoQCksVG2iFl6Gf3I/ZpXMxGL88mEgEglZjjYyMoq2tDY2NjRyVlZUIDg5eWm5qauKGSqFtJ9cL2vNHy+wcN0NicUMfAhKL4Hg5AXY+cTdFUsMahg6eiEjORUJWCb77/ofFVNdSG0kqUrMbMDI/hiZ/O5hK7cDHB49DwaQcVQNTmCTH9dRHQfL/vQZx+wykt45ianoQLdl+sP7i71AJqUeCvzOOvKcCrx4ehumc7ZPdKPDRhankdmhkTCPN1xJyBwzhXDZBrmG1VVvvQ/ykHky8F0o4C9jBQOw4DlCR1E6jr80fJ958E69t2oZtn3+Gbe88haePGEM9tJRjtDkP+dri2EUEczG6HQPLzsNg/DJhIhEIboiUjExEREQiNDRUKGFhYYi/yRApdKpdDRMHTiRZle0Q13bEh0fUsOmkNrZK6l8fCT1skdDFFnFdfHRMHVvFNPGVyE+1e+M2El6hC0yOv4m/vrIJSvE89I4vrO+pj4X0/22GWWIrarhG+Ql0lJCS2r4/QcG3FtEezjjwkRXiyLlo1RE9piHOHB4aH0EhbhqpPnZQE7NflMYdaiOhIqm9BLGNeyC2VGIhXIpDTHkPx/xAHcZDxPD61gO4XLHyPAzGLxMmEoHgD9ooONXuSmgmSve58VS781AzsuOm2k0rbcYWMS0oWPrBI7kWkaX9QuhDREkvIoq6EZrXiuDcVtgEZuHgGcs1MNXujURy4xKJ1B9eh/LlKpT0zmB+ug21Sc44++oL0IpsRFKgsBKJMSxkDsCocBrpfndJJKREonpAEwHt4wLHU+jyOCuRMBhCYCIRCGEimZzmwT0g4xZFcnXO9pjsKryz/zTM/dKJIFoQU9qDyKIOBGY3wS+tFv4Z9bhM/vokV8I3pQo+iWUkg8qHur0/Np9QWyMlEjtI//FDaAUUIqN24YHEzu4eDAwUw26/ASx1HHE5yRtn/yYLt4ImNE7OoLs+DOK/+ws+Vg1BUFY92iujEeukjc3/0EFAQy/Kci5C6Z3NkPFtR1k9SbPYF+fP6uDELhek8KaRHSAokllyTVm4dEwMKkcN4EKEPDRB5LR0jattbJ9F31Q29PbtxUnnfO59cPQNore/hKMk2hkSD57FBXdS0pK/hJjBca59hLd0LgbjlwcTiUDwRULnHKGDMlKGx6dh6BC+tDy3SpGc0bVAHBGJT0wOPhHThi15wz6pVBx18CLScIksgFNoDs5RQrLgGJQB57BsuEXmwf5yPBx9IpGQVYzvBAaHFF2RGOH4r36Lh+99EA88tPBA4tPvfQLFswo4rGALx4QW9NVnIk3rYzy/2wrn0+vRUh8Dyd+8jpOHP8Grrz+HdQ/djxfe3QrZy4NoHZnD9HADUs9J4N17H8ajD5M0H1yPzyRs4VU2Qko0M8hfJhJ6HVPIdTwIyff+iD+/tBF6EbUC17hakdBeWyQdX228+ucHlx6uXLf7NHaJkVIIwfDAB9hkVIzaglhoyUjgI5UwNJH7Mb10LgbjlwcTiUDwRULnbG/tnkBSTgdCE+shrx/GvS6vH1qas/2GU+0SkShpm3Fzttt5R+OIuiMs/TNxLqIAzhH5sA/Oho13DOIuasDGIxQul7yRckEJaZeU4RMUAi2Hy3DwDOXSEgzRFMkYRnpqURQejuilBuxwxCSlobikeKn77+z4IAbrMhGfXct1/+2kbSS//wg67qHwjIzhjolPzUJ5zzymaFXWNd1/k5BV0oiOCXrOhe6/VcX85QWGWgpRkk72jV/Z/XcaczOdqE7KRU19Dyl1XD1mfn4YvQ3VKE8rRePYPKbnBLv/LkKEnplfwMHv/js+3Iuq0iLW/ZfBIDCRCARfJPSmxGe2QMkoGXL6CTigGMK9vhBYjumZGW7O9osXL6KqqgoFBQW4cuUK0tLSuGUadKpdeQ1jIpISaNv7QNkmACZeyTDzSYWpTwqsPcPh52qMAas/w8vZCD7ndDBt8Sv8y/YexPua46S2EzmfC5eWYIimSG6PaxvbGQzGWoWJRCD4Ivmxc7bTqXb5c7af0nfm5msXnLP9srMOvrT5LS7qb0aV7VswtLXDRd2PuXVeNsrYLqkNWS2rxdSuxs9JJL2NCVB8+AtYp7ShjomEwVjTMJEIBF8kgnO2d3b1ICWr9NbmbJ+Zg9RpbWhZOEPWyI2bp13NKWwJH0ct8Oz/AjOniyi1/wRa50Jg4eQGnt1foCe3E6qmzsgpvPahxJ+TSOZmJjHU2YfRqVnMsBF3GYw1DROJQFz5+mtERkYhLT2dq7ISRm5uLveAIpXK9YJOtSuhqIkj8to4ZeS+ME+7ffASTtaaaDT+E2LtjyPVYgMsnVyR7HQM39j9P0RrvIKiZOEfyM9JJAwG4+cDE4lAfPvtd6iuqUV8fLzQhxEpERERKCouwcwNBnKkIjkpp4ZPjypBytCdm6udP1+7krU/tEwM4an2DAbMfoOL+p/A3V4Tkxa/WuJKvuliSsuDiYTBYIgiTCR3IaamZ3BYUhm7pLUhY3wJilaXr+GsuTPczzwCXRsnmFrqwkvpD0tUJ1suprQ8mEgYDIYowkRyF+L7739Ad28/jp82wHMfH8Lzmw5fwwubDuD1Dzfgpc0H8MqmPXhjw3sc7278AD5+PospLQ8mEgaDIYowkdzFyCmuREBU0i0RHJ2MxpaOxRSWBxMJg8EQRZhI1lAwkTAYDFGEiWQNhaiIhM4YOTMzw2AwfuHwf1SKlEisfXOXZVh8mEgWQlREMjExgY6ODgaD8QuGDgtF8wOaP4iUSI7qRyzLsPgwkSyEqIiEQkslDAbjlwvNB/j5g0iJZKdq0DUZFoWJZCFERSSsjYTBYAgiUiLZxURyw2AiYTAYoggTyRoKJhIGgyGKMJGsoWAiYTAYoggTyRoKJhIGgyGKMJGsoWAiYTAYoggTyRoKJhIGgyGKiJRIWPffGwcTCYPBEEVESiQ7VAKXZVh8mEgWgomEwWCIIiImElYiuVEwkTAYDFFEpETC2khuHEwkDAZDFGEiWUPBRMJgMEQRJpI1FKIpklnMTI5gkFxXJ4FeH6Wrpw8TM8vTuBaSzuw4hvsGMDg4holZkvbcBIa7+zE+OSNkf3KuqTEMdtK0rw4Yx2Aw/rOIlkhYG8kNQzRF0oCqBBucuvcpbPriCA6elITk8d0QOymOC7EtmBBI4xrmZsDry0Co3Xlc8kxGwUAfxgbDoP/SbvikNgo5phE1Ka5QfGgbIquHhGxnMBj/CURKJHvVQ5ZlWHyYSBZCNEVSj4pYB8j8aQvMktpRO0rWjZehKMgCKgoeaJ66msbNISIZCIbmE5/BI6leyHYirUQnSP/+Y4RWMpEwGKICE8kaCiYSJhIGQxQRKZFImUYvy7D4MJEsxJoRyVgJCsItoabpj/aJIXTXVaE8oxxNY/OY4dFjhtBYXEGW5zA914fmgmJUlTSiY6J3uUhmJzAzVIv8hFjEhocjLjMYAV6WTCQMhoghUiKpbxtYlmHxYSJZCNEViR2k//ghtAIKkVHbjvYsfwSe04Z+dB3ZtxDRJppQelceTvU8DE3Pc+scTpwhy9MYnEqGy14xqIs7ILBNUCS1mBmsQXucBvY9/wyeenAdXv7iM2yXOY1jRCQhTCQMhsggUiIRzKwEYSJZCNEViRGO/+q3ePjeB/HAQ+uw7oEPsGG7FYrGZ36ESApQl2aDs4/+FeI2WYgtakdN0nm4yGzAX4hI/JlIGAyRgYlkDYXoisQakr9/FeJGl+DiH45wXze4GurAyDESbeO3KZKYTBRFWmLba3LwK+xC5+Q8pgcLkO2ljs+ISIKZSBgMkYGJZA2F6IpkZWN7HSoiLSAvZ4zSvtsUSVQa8sOssXGTI9JbBzDCnYs1tjMYoggTyRqKNSOS6VbUJDpAWVEPxT0VSLRRh+qmkzAv5WFgiohkMAn6h6hYWImEwfg5wESyhkJ0RWIB8d89gc+OnYacui50VU9DVe407C7nondqBG3JTnBX3IK3jujgrAbZbqaA3RuP3VgkSeXoLQ9BwME3senQGUgo68LQ+DSUZQ7gLSKSQCYSBkNkYCJZQyGaIhnDSE8tisLDEU0I54hHUkY5+vnPkIz1oKc2d3EbITsbeelFQrr/TmF2uhNViTlo7R0jJZtRTHcUIzEumjsuPisL2aVVKI3ORueIsCFUGIyfHvr/cD1GhweFHvNzg4lkDcWtiuTLwQ582dNwR5jvql/iy26CkH0YjFtmTPQz2pVyEMybhgcHUJSdirhgb/g4GMNaQwbqxz/DofX3QvLt+5Af68cdIyzdnxNMJGsoViuSrxrz8XWgHL5x/5TBEHm+jjPjpCLsu3w3EZQDLTl0tTWjvrIEZXlpSAz1QUqYN4LPmyLISRcXDU7hnOphWMlsg8aul6Gx82WceudeKG+4F+of3Qetj++D7qb7YLb1PjjtuB9uh55CYYw3ZmZmuDzs5y4TJpI1FDcVyfQE908p7J+VwRB1rhQECf9e/0hoJk7zka62JpTmpCLS2xEBziYwlNwGE6ltOPHW/Tj59v2Qff8+KH94HzSJFPQ/uQ86m+6F/ub7YP7Z/bDe/gBsv3gADjsexLmdD8Jl90Nw3fMQ3Pc+DI/9D8PnwMOIPvlXxIn9FRf2rkNFVjxGR0cxMTGB6elpzM7Octcg7Pp+DjCRrKG4mUiYRBhrnStlMUK/27cDzTuGulpwZsdrRBL3Q2nD/VAkqH98P/S33A/jT++HwZYFUdh+8SDsiSQcOUk8CLe9RBJEEJeIILwIvofXwf/IXxF09K8IPf5XhJ94BJEnH0GM2N+QI/coihUeRYb0Iwg8sg5J/ufR29uLwcFBjI+PY2pqaqlkIuw6fw4wkayhuJFIaHWWsH9MBmOtcSfaTWi+QUsBg51NSJR+FJbbHoDN9gdhx5cFKU24ktLEBSILDyIK70PriCz+istEFIHHiCyIKMKJJOIkH0Wi1KNIImmkyhBZyP4dWXJ/Ryb5Syk/vUC27N+QIP5XXBJ/FS0tLdz/aU9PD0ZGRpaVSoRd688BJpI1FDcSibA2Ebruq5q0axs4bwPW2M6409CqrG98Dl/zvb2S5SH0O75aaFUWLQHQksBgbxeq1J5En/HzyD/zJJJk/o40KgH5fyCLkK3wGHIVH0O+EkHxHygkf4tPP4YS5at/BSklVKs8jnq1x9CiQV6fIRI5RYRDJOJ97ClkRAWgtrYWzc3N6OzsxNDQ0JJIaF4m7Hp/DjCRrKG4nkjoL7iV/4z0H5S2mazc93YR/Dx+7g2HjJ8O2rNQ6HdXyL6rgX436S//yclJjI2NcdVLFTqv4muHVwD3t/HtpfdQr/kU6jSeRJ36E6hTI9C/6ovLguu4v4+TvwTyt0HjCfToPYle3SfQqf04mtQfQ6HCo5xE3Pb9FeFe51BQUIDKyko0NTWho6ODEwm9Fla1deeDieQ247oiIb/uVv4z3sm6Zorg58FEwriTXElxuub7K2y/1UC/nzTTpm0Tw8PDXPVSpdF7uLIoEvh+iNlzr6NV5ym0alOeRIvWAvR1K32t+QT5y4euewJ9+k9h1PhpDBg8iW4iknbNx1B15h/IIKWRgKN/xWV7XaSmpiI/Px/V1dVc9VZXVxdXtUVLRqyx/c4HE8ltBhMJ4+cI/a6u/P4K22810O8nrUaiPab6+/u5UkGl2Sf4yv7lBZH4fYgfvN7HtMOr6CFy4NBbyZPo0l2Avh4hAhk3fQYjRk+jX/9JrjRSp/oPFCk+iniJR+AguRHx8fGcSAoLC1FXV4e2tjauwZ2WivjVWj/n/xsmkjUUTCSMnyN3WiS0BEBLArQ0QksG1fZ78ZXti4Dbm5xI4LcB8Hkf/7zwJmaJYEZMniaSeIoI4ykMk78UKo1RwgQViMlz6Dd6Ht2Gz6PN4EVUa7+ErDMvIELmWZw/9AT8zmxBxgVNZKUmoqKiAq2trdy5aYmIVmvR0sjP/X+GiWQNBRMJ4+fI3RAJzcRp1VJjYyMqXSVwxY6K5I0FiVwm0L++7wPe7+KK4yuYtngWU+aUZzBJ5DFK5DJERDJo+DR6DZ5Bl8Hz6DB8Ca0Gr6LR8HXUG7yBAo31CDv1Imz2PgnbvU8gXf0d1ObGo7u7m2sbodVrP/e2ET5MJGsomEgYP0futkgKnCQWSiSuRCS+HwD+fJmQ1z7v4d8X38Q3Di+DZ/U85gizRCqTZs9gzOQZUjp5GgOcTJ5FN5WJAZGJ4atoWpRJluqrCJJ6AfYHnoLVnieQZX0cfX19Sw8j/tzbRvgwkayhYCJh/By5WyKhJQPaeyrP7SwniX+7rCclEFIK8f9wQSSXiUhoqcTjbVJaeR0/nHsZ39i/SKTzAniWz2GGlFCoUGg1F5VJHymZdBs8R2TyItoMXkYLKZ3U6b+OQs31SFR6Gb5iz8Hl0JOIM96P+lgXjPZ3M5HcxWAiuc1gImH8HLnTIqGN2/w2Evo8R7a3MWZIKePfzq8BXu8BAR8tlEr8iUj8iEi83gHcSWnl/Gv4l9PL+M7hRXxjR4RiQ4Ri9RwnE9pji1Z19RsslE74VV1UJrR0UrdY1UVLJ3b7n4TN3seRqPYBxgZ7fxEyYSJZQyGyIpmbxuxEL9rrcxDragiT05KQlCScMUZYYRIi3N3gKGuH0HYeRmcEjhNphjE9kYGLx9Rx0S8HxYM8Dv52Hq8fBYG20P3kC+w9IQExCfJ+Tx6Gsp4DLib3Y2pZWtcyN1iBC9p28IspRdVwJ9rLI2C1UR7eWW1oHFu+L4/XgKIQD9ifNEdAGw8Ts8u3r3Xuhkho1RLtNUVFkks+p0lSuvi3CxGJ57sLIgkgpRKuiovIhIrk0puEtzih/IuUTL7ly4SUTmYtScnEdKGqi8pkZVVXi+FrRCbriUzeRJbKq/CmJZPDT8Nqz+MoPifJXQ/r/nvng4nkNkM0RTKH2aEatCeqYe9zT0PMKALR9QvbeINFiM8OhJ748ql2rx4ryvRjciwUus9tg65FNFJ6eBz87TxeFxJtdaH4miTs6njoozM/9sQjUEcbB94xRunsrZTamlCfdR5Sv34fJhG1KB9evp3HK0Wyoz4UXhKDTS0PY2tGxqvjTouENnDTbre0rYL22soNc+Ma0/9FSySeRBqBAiKhpRJfUkoJoqUU8tqbiObC6/je8SWuZPJP+xfxpc1Cu8kULZmYLDTAC5ZM2g1eRqvBK2gmMqnSfR3pZ1/FZYnnceHoM3A79ARqwqyXZPJzLc0zkayhEE2RDKK1wAdOOx6FtHMOUusnMMHP6EhJZWIyD2EGvxCRzBJxWutCbr0MUvuYSFbL3RAJ7TFFnyOhz3PkRPsRATyD751eXmgPodIIJCLhy8SLrIv+FAjbTLaRdT5ELBdJycTlVfzg9BKRyQu4YvMC5q2e53p1jdHuwsYLQukjQqHtJp0GL3BCaTZ4jWs3KdFajwSll+FxgnYRfhLhsq+hmghlamJMyP/Q2oeJZA2FSIpkpALFARY48I+9cCjoRNPk8uN4vEJEm6wQyUAeHM9KYdu2nQRzeKTXoo3sO9xaggybbTi2bxu2HZGBRmgNSYP+iitDrLk9PDQMcO6cPjlmGw7K6SCifHjZufiMtJfB/gxJg+y3Tc4YaiHVZD297nLEWTrgkroBTp+m598GScsQhJctTtvLI+fqToSR9DHsEz+GM5fPQfqRrasXSWMw3O2N8ZmiP3qnupBg7YhLViFI66XH0XkvKpBgs7CucaQRfnKG8AnMQ8ngtSIZrE/EGXJ9ewgSZlpQkDrNRLIK6HeTLxI6PAp9ILEoKwkdek/jO0ciElp9FUxEsiQTIhIiDaTsBhK/ACK3AiEfL2s7Eazqmrd+frER/lmMmT6DISITwaqudq6qi7abLFR1pZ55BQGSzy9VdeU7Sv0sq7qYSNZQiKRI+nOR42uGj180RFRzP/oFjqEsF8ksBqebkH/BAloKatDV1obucSIMz2Ry7BjGextQEaILSxNdyMtL4aDYeeT1k1LNbArO79+JA2/twF5Nc3KcJpHNYSifz+cEJHg+ynhfE8JcdaGrK4UjR6Sw/4QLcvtJ5jKTCrdDu3HgzS8go2VAzr0BH25Xh6JzLlp545idqkCy0THISpyFvoE6jM1O4qMHP4T8dUWijGMPr8dWeV2oaJHzSStCUc8ZehmtZHsT3I9KQfWIFfxa6XH0vqXh4jGy7rAlSvqLof/iF9A1jUBS9wqRDHUhyUkNOw7rQlVdl1yHAiR378InTCSrgi8S+izHgkiSUaf1NL51fImUSIhIqESCNy7KhIjE9RWg8DiQthdI2klksmVhG20/oVVdbq/je4eFqq6v7UjJhMhkoarrWa6kQ2VyTVUXkQm/qite8WWEyryAC8eegeP+J1Af/vOr6mIiWUMhsiLxt8CmtyyQ0DqAQYFjKMtFMoXBoSjY7NyNU8pWCA8JRLjxPuzT84BFAnlfU1fnaHcxU8XBt2ThWD+NgSkqkk/x2QeSOOlHShezk4iy1MBRBS8kTwj5R5weRX1xOsLDbaF/8hgOvCEDh/oZ9E9RkXyOz98XR3BJN3hl9lDYKonDsh5IGu3BZI83lN/YgPOR1Zjqq0HD5SPY8MgGSF5XJPI48MdH8cLGz/HJZ6T0s1kcMqcd4ZFagt7J2xdJWU8erKQkYVHAQ/c4KZ0UucFe6gu8yUSyKmgGTZ/hoCKhI/BWlOSjROUpUqogIqGN6rT6KoSIhCuZfIh/nyPrC44BxSeAjH2LJRMiE1oyoTLxpN2D1+MHJ1IysV+QyZdUJrQRni8T2gi/JBNazcV/eHE9qvXeQLLyK4iUfRHnDj0Fn+NPotL4I4x2Nf5sZMJEsoZCJEUyWIg8T2N8+qA0LlZ3o31Fj6JlIqmdwGDtBWhsfQN/u/cBrFu3boF9xjCMqMR0WxHqz5/AKy8+iQfufxQvvycoEnGoidsjsI2eewYFAXZQE7PnejEJno+2y0y3l8BM4mM8+PCDuP/PT+GldwRFIgG1E7bkVz99H6m4cJgsH7eFf20rJsqtcWC3NTJre0hat9PYnoggPVnseuMkEjobb18ktXEw1D6POnKfae8v1kZya9DMmQ5Nwu8CXFNTg0KNl/G1/fOA++vLReL9Fv7l+AL+lXcEaFQAKqUA+jppBxD7ORBBhELbUmg118U38S/nV7iSCW2Epz265iyf456I54ZSMX5msZpr4XmTzsXnTZoNX0O9weso1lpPSicvwe3oMzh38EkEyryG1gz/pWqutSwUJpI1FCIpkrkeNGS4wfD9R6AU0Iji7uXHCReJHGz8Urj3wtE3jKGuAhRftsSuv8vjXHYZ0hIuw/DobYhkqBSlAVZQVnJHYXsxYhyJpI78RCKZbUWetwZ0d22AfyUTyWq5WyLhdwGmgyimGX4Ong0RyYX1CyIJI6WNUCIT15fxg8Pz+D6dlEQGtIEOFaBGBigkJZS0PQtCoaUTWhVGG+ZpY/3514hMXuLaTbiqLqvnSOlkQSi0i7DQXl2LVV2Vuq9z7SYhtKqLCMX10JNoiFj7VV1MJGsoRFIk87OY7qlCS5A6xI7tgKS2M875JSM5mZAQiqjcYFgr8Ku2pjE4locg1ZM4ddpyYR9KcQPqy5OR7a2L9W+fgpV/GC46GODE1tsQSVcecn10cUzREhFxl2ClII3jn6xCJC2DmB5KgMveT6Bh4Y3EmMsIczmGDx/eAJnrikQdUk9tg5x3MsLiyfsIOw8HzbOQFTNGXu8QMm2loC8jDlkX+j4TkRyiixMfbsfum4mkvwZeajI47pCMoJhkxAcaQevIDnzARLIq6HeUPt1ORUK7ADc0NCBa53N8ZfMcEclrCyIJJyIJI3I49yK+s38O/4z6DJg0AYZ0SQ51BqiSvlrVlbCdyOSThaou+iQ8bbB3XY8fHIlMSMnkCimZ0KouWjq5WtVFSidEJj1EJgs9upZXddGhVSJkX4TTwadw/uATyLE6yF0zv3Qi7H2JMkwkayhEUySLzE2B1x0PDx15nKS9pSjHNBFenIbkAE+4qZxHVCfJBGnV11KvrcX9tDzgnlmFntok+J/ehkO7tuGIvB5c7ZzJMTMYnVnstWUfgQyuW+0s6jLC4WHHXxa8FvIrtD4ZBmIkXUlNyJ01hqvtOUR2zmKEpMP12rINR/MYfR/liOeWw5BOe1bNzYBX7gM5sYPYJy4OlcBg2BzRgW9wAcqG5jmunmcAJWGOMOS/Bw5JqFqHLvbSIvs0JiDCSWVh2xdfYJupKdSl9K7ttTXUjc6qWDjuUEVAXgeax+fRWxC4lK6EuTn0TZxxXt4eYR08TLIHEm8I/Y7STJk+S0K7ANPxtmLJ5zBuTkTiSkVCShZUJJffwb+JSL61ew4zF4gchnSACSOgXwtoOU1KJqeAUjEgc/9CNVfU1oWSCZXJYrsJfd6EK5ksyoSWTBZ6dD2LYeNnuJJJz2L3YP6gj/RJ+Fr9N5Cn/hpCpF+A9d4nYLfvcRTqfYjxob41KRMmkjUUIi0SBuM2udMiod9PWlVEe24NDAyAPt2e4GmJIZNngfOvAoEfABEf49+kdPK94/OYtnwGvWbPA4UHgHoZYJiUSgaIVLrUgGZFoFwCyCLbaI+umE+B0E0L7Sb0eZMLtHvwKwvdg2m7ic1Cuwl9AJIKZWW7CR2na+Hhxde4UYSLNNcjSu5FeJ54Fo4HnkSc5iforcxYc6MGM5GsoWAiYfwcuZsioc+S0Kfb08K9MEhE8m+XV4gEiEguv4d/OZFShM2z6DV8CuUqjwMh7wIpnwFVpBQyZgCMGwJ9pHTSqny1qit1DxBHSidcry4iFDqCsPuby6q6uNIJFYrVYrvJstIJv1cXfRr+alVXpsrVqi7v408i1+og9x7o/5uw9yhqMJGsoWAiYfwcuRsiob/o+V2AuWFS0uLQovs0KT28BPjTqqk3SKb/PMZJqaFF+0nEyjyGATuyPvAdIPMLoI6Ig5ZMJowXGuGbSMmEVnXRbsJUJrTdJJpWdX288PAireriy4RrhF8onXBVXebPYZzIZMT42WUyuTq/yRuoNXgDueqvIVj6BW44elrVlaOzAaND/dz/nLD3KUowkayhYCJh/By5myKhw8nTGQtLS0tRqfEUvnd6kWT87+J755cwa/Us+oyeRrnq4/DUF0OIpzOqzx0BwokYcnYD1eJA19mF0gmt5uJKJlJAPtmHNsLH00Z4IpOgjeSfk5RMvEiJhsiE325Cn4TnxunienQRmRBp8Usm/Cfhuwxf5OggYmnTfxGlZ59ApuyjiJX4K3zVdizNsEj/74S9V1GBiWQNBRMJ4+fInRYJhd8FmD5LQv9n6BS46TofkZLC8/iX55uYtHiGlAyeQp3mEwjV2YHAwECOED8vVHjI4wd/IoWET4DcvUQgpDRCZTKsB7QTsdTKAiViQPYhIHHHwjhd4XScLvpcynvck/D8502+oeN02b5ASifPc43xdLwuOjQ9145CG+XpmF0GT6Jb5wk0qD2GXPlHEXjsEUTZKq2pOd+ZSNZQMJEwfo5cSXG65vsrbL9bgYqE3wWYPt1eVVWFON3PMWf9LP7p8go69Z9ElfrjCJd8DIHeFxAWFobw8HCO0NBQRPm5YdiBlDIC3loondRLAyO6C0LpVgca5EmJRQYoOAqkku20dEKFwo3TRY6jowxfeB3fOb7IlU7oA4zf2NHBH6lMnluahZHOFd+nuyCRktN/JyWRvyE1zJt79oUOOEmr5qgQRb3xnYlkDcV1RTI2eM0/4teBcpifnrhm39tF8PNgImHcKb4c7Ljmu/uNz2Gh+94KfJHQX/R0yt3q6mquC/Cc9TOYIZl5PSmJJMo+hoDzFoiMjERMTAxiY2M5oqOjObFE+l1AtzWRQtSGq1Vdg9rAKJFJr+ZCVVeF5MKT8Omk5JKwOOgj7SJMZ2D0ehffOy2M0UUb4alMrtiSEgktjSw+DT9s+BRaNB9HufI/FkojZzejsLCQEx9t26G9zmgVnag/sMhEsobieiKhUHGs/Iek675qzOdKLD+W+a76Jb7sJgjZh8G4FbgqLSKNld/bK1keQr/jtwLNdGnmS0VCp9ylw6REOZ7FhMXTGDB9GrmnH4OPsTSioqIQHx/PPRibmprKkZSUxAmFCibK3x39HrTb70dEGEQWDaeAKVNSMjEE+olUmpUWqrnyaclksRGeDqtCSyYBH+IHl1c5kXy3KBJaxTVnuTC3ybjJ0+jVexLVKo+hUPHviJf8G0Kc9JGfn89VxdFpgulzMLT3GRPJtcFEcptxI5FQYaz8h2Qw1iK0lCLsO34r0HyDZr40E6ZtDfX19ciM8MaQyVMoUXsK4c56SwLJzs7mSgHFxcUcNCPPyMjgttF94oM9Uechgy893weSPwNqJIAeNVIy0SclFB2So51Z6NFVRkos9OFFbpwush8Ryr+4SbKISLjG9+cxb02fMXmGlEaexpDhk2hUfwx5Cn9HpPij8NY9hpSUFO5aaAmKXyJhVVvCg4nkNuNGIqF8HWcm9B+TwVgrXCkIEvrdvlVovkEzXyoSOkwKfbq9MCMRLbpPItLkMFfyoLLIy8tDeXk5Jxq6Dy0F1NbWcr28CgoKkJmZiYSEhIXqL/+L+MrjvYVG+KKDQDURylJVl8ZCVRcd9DGbbONXdXm8hX850XaSF7iGfp4VLY08jVEitDbtJ1Ci/A8EHX8U/uctERcXh6ysLO566LAudAh82uuMP3QKa2xfHkwktxk3EwltE/k6QlPoPyiDIerciSotPjTf4HcBpr/q6a972u6QofgY0uLCuVIILXlQYVCJ0IZt2ihP21Nod2G6jlYv0dIBFQ4tmdBqsExvY3zr+QYpcWwkpQ9S8miWX6jqojKhQ6vQqi76JHzuoYUuwn7v4wfa4M713loYep6WRrqI0P5/e+f+VEUdhvH/oB+aaZIfUgmTpinLsknHki5TZmma2aTRKFpCYyWjgl3G63i/TSkZKGMgpnIIDEGNm4A3BMVgAJGDpnhOhnKLw9g9fdpn4bU9cLpp1q6978wzcs7ZPbuM+/1+eN73/e5WzgpGbmRvxL832azRMKXGc2Iajudr7dpSkPQMBclVxp+CpEvMPQeqmahUdpRZy3MfCXgtX604bxAkTAux84lwoNPITVpuwuHgwYMoLS013yNE6Fq4Cp7b8meOM7oTppjoTHJyckyY0JkciDPGVtxAINVwJ/te6IQJV8GzbkJnIrejPxgOPh/+Z8ON/GC4Ed40sm1xfzTM6Yea2GAcnt4HqVEDzOI+XQ+BRbDxli4EGs+HICRE+PsoSPxDQXKV8VdBImKumQOUYLlWXTyc8ZtKMwJuo1L9HZlF93+gHvJ74gQsLcB8LglhwvSVpLH4mhM200dMgRE63J6TN9ef0MnwcwKF0BGgSCF+R0o8LiYYMMnmepMxBkAie6S6Lu8ejR8NiHxrQKRjaSg8c/uhwnAi+97og+Tw3ti+OdGsixQVFV2BCEHG4/M8CEM7A0SkIHFQ/F2Q/JOy/n844cJWqXitSsFdoED3QYCw/sBuLr7PzwkQTtqED/fhJE4AyXPfWbNgqoupJynCS6rrsqS6CkYCNVFA8/wrqa5L+ePw/Yo7cXFZKNoW9Yf7nc66SGpEb6TELTGdSGFhIUpKSkx3xPSagI3nwd8h0O9mNylIHBT2BonPeN+LL7ISsWkZn5duaEkC9laVoSQnGzvWZ6DY40Nze/f9VKrrI16rUifh5MxWWjoTSlJZhIUUs63XOCdxOhTWKAgbjju6GBbC6R6sqa7itVH4du1AwGW4EzqTk9Fdixfn4tLRKfjOcCO+JaH4al4/sy6SF9UbG2aNMVNa/B6m2aRLi+dlBZtT/mhTkDgobAuS5tM4X5GE+eEj8VbMUqxI6Fwh7Nq6Acl7krEgUh5s5cNXrZb9VKrrLF6v4jAIBaaMKP4sEzYh0v2a5n7iTrgdoUMASdGekz+dBAvkBEJGSgKOJ76GnzYPBfKeBcrCDaBMx6XaN9G+mE9N7Ifa2bcjf1oItq6ONTu06GyYLqMToUvi91vB5iTnryBxUNgTJE3wVu/BrvnD8fIrM7Fq+xGUN3R91lSHYzU7sfYtBYnqvxGvVV6zBAInaKmD8LWksn5vwrbuK6kuuhpO+tLVxfZh1jgIBkl1If5+IPNRoGAUfimbCO+8O8w7DB+O7ostbz9vOhm2H9PZEEpS7CfgBCI8bqBzsqsUJA4KW4Kk9QSOZb2P6IH3YHZGLY54/Pfze2a7gKT5FErydhmu5VND+1Hu9qLR2Lal8QzqD7mQmWG4mczdKKjyGN/BYzXg+P4SlBewIFlkup0de/aiuqHF71gqVSDxeuXkTHAIPES8ngPtI7LChBAiTNiWy3EoqS46E4JBUl371kUBmwaZXV2X9o5B/bshKJ8RjMxX+8C1eaPpRKQuwkI+nYjURXh+PcaYA6QgcVDYEiRni1CYMA9ht0YjufoMTln2oXqCpAXnj23B1McGIajXbeh180uYmWQMqpZ2eCpz4ZoWhAF3BOGW0AfwxLzdOP+NMbB8fGZ7ON58+BlEvD7O2K8X+j4wHEsy3WjtdjyVKpAECFYF2i6QrCCiM6FzoIOQIjy7rehMcnNzTZikpaUhc+NSw5kMBNKHoTImGMVv9EXitDDzcy5ylLoIxzNbjv8ozeYEKUgcFLYFySdL8VjYKuTUeXHOsg/lD5JWeFvzkThxKpat+wzu41Vwb5mB2PXpiCs8i/a2FjR53Th10o1811pEDotGfE2rAR+CJAxDBzyHxxdlwV1bhQ9nRGFcbCoOOHDQqZwpAQqdCSd+ugh2fsl6E95ehSvT2YnFBYY7UlPg3vgKDsTejW1r3jbTX1wrIh1aTJFZu8acChFKQeKgsC1IEhfg0eDZ2FbTgNOWfSg/kFQ2w1uXhLlPD8Wge4dgxPCnMOKhEIRMWIR30qrQce4EGvOWI+LlsQgbPBiDH4zEGgM+nhaCZBwiRr+LxUUedPhakfPRQkRNWYe0BgWJ6t+TwETqJnQn1lQX15swbcVurOzsbOxM3470Tz42i/J0LHQicot46dDid/E7ObYCHdMJUpA4KGwJkguVKEtbgcl3hmHh53Wo+Np/Pz+QVDTBW7EeMU+OwtjxUztbhKkNWdh5oATugq34YPwUTIqJReSUSXhxhBUkkzBz0ipsqeOx27A/ZSVmTlyFFPO1/zFVquspjgFO/JLqojPpnuriehO6EwKFYjqL77G4Lh1a3I/uxukQoRQkDgpbgqSjBY01eShe+DQef248ZqzPQW7FOXOQnPvyKPYdTcfKaeJIWuD1ZGD1C88jevG2zm2oC81oPr4buXExCLn3PaSU1aAgbR0mP6kgUdlTMhboJugq6EzY0UWnQcfBji66D8KD4m1ZWJhnGozpMKmLcP+eY8p5UpA4KOwJEkPtbWhvPIlTxcswfcRg3HVLEIKCgtBrwEisyU5G/JzuxfYkRDxyn7mNqbHzMSc1H1X5H2LWoJsQctutCB0yCq9PUJCo7CtJc7G+Ie3BdCaECdNcvPkigUKxhsKWYboWrknhOhZxI06HCKUgcVDYFiSUz7DmF2pRXvg5sroeWerKLED1GTfqKstRlmf8NXa+A20+Y9sr7b9d2+0tx9F6Dy54T6Aix4XPPnUhc08hyg6VGvsYf/W1d7X/llSjvonH88FbX43yQ/JapfrvxDFBIIg7ISgIFN7uhFCh5JYsN0KHViApSBwUtgaJSvU/FccDxbEhRXhZRU9wUEzh0rHwMymu30jjSEHioFCQqFT2lRUmTFsRGnQfohsVIpSCxEGhIFGp7C2BiayiJzhETl21/lekIHFQKEhUKmeIYySQAm17I0hB4qBQkKhUKjtKQeKgUJCoVCo7ylYg6fpXQ0NDQ0PjqkJBoqGhoaFxTaEg0dDQ0NC4plCQaGhoaGhcQwC/AopUYFwfp8j5AAAAAElFTkSuQmCC;" vertex="1" parent="1">
          <mxGeometry x="200" y="1220" width="402" height="272" as="geometry" />
        </mxCell>
      </root>
    </mxGraphModel>
  </diagram>
</mxfile>
